<svg xmlns="http://www.w3.org/2000/svg" width="285.2" height="502.328" viewBox="0 0 285.2 502.328"><g transform="translate(-1870.57 -228.517)"><g transform="translate(2010.133 539.748)"><path d="M2299.346,1180.646a5.312,5.312,0,0,1-1.2-.165,3.8,3.8,0,0,1-1.407-1.072l.6-.527a3.069,3.069,0,0,0,1.007.828,4.812,4.812,0,0,0,1.056.141,5.225,5.225,0,0,0,1.095-.095,1.607,1.607,0,0,0,.915-.508l.593.53a2.386,2.386,0,0,1-1.342.756,6.181,6.181,0,0,1-1.258.112Z" transform="translate(-2296.735 -1178.881)"/></g><g transform="translate(2014.754 534.736)"><path d="M2349.19,1178.984a39.394,39.394,0,0,1-9.824-4.561c-3.107-1.873-5.984-4.1-9.1-5.864a32.81,32.81,0,0,0-4.871-2.225,16,16,0,0,0-5-1.13,9.917,9.917,0,0,0-4.8,1.187,15.78,15.78,0,0,0-4.134,3.113l-.617-.482a12.307,12.307,0,0,1,4.034-3.915,10.079,10.079,0,0,1,5.568-1.522,13.751,13.751,0,0,1,5.437,1.592,47.957,47.957,0,0,1,4.784,2.7c3.108,1.929,5.876,4.265,8.888,6.25A35.841,35.841,0,0,0,2349.19,1178.984Z" transform="translate(-2310.846 -1163.577)"/></g><g transform="translate(1972.809 534.736)"><g transform="translate(0)"><path d="M2182.765,1178.984a39.382,39.382,0,0,0,9.824-4.561c3.108-1.873,5.984-4.1,9.1-5.864a32.833,32.833,0,0,1,4.871-2.225,16,16,0,0,1,5-1.13,9.917,9.917,0,0,1,4.8,1.187,15.779,15.779,0,0,1,4.134,3.113l.618-.482a12.309,12.309,0,0,0-4.034-3.915,10.08,10.08,0,0,0-5.568-1.522,13.751,13.751,0,0,0-5.437,1.592,48.008,48.008,0,0,0-4.783,2.7c-3.108,1.929-5.876,4.265-8.888,6.25A35.835,35.835,0,0,1,2182.765,1178.984Z" transform="translate(-2182.765 -1163.577)"/></g></g><path d="M2267.24,1231.536l-3.41,3.092a22.914,22.914,0,0,1-7.45,5.074,28.232,28.232,0,0,1-8.882,1.591c-2.842.1-14.885.1-17.727,0a28.23,28.23,0,0,1-8.882-1.591,22.911,22.911,0,0,1-7.45-5.074l-3.41-3.092a21.193,21.193,0,0,0-3.881-2.48,21.121,21.121,0,0,1,3.778,2.587l3.259,3.245a23.553,23.553,0,0,0,7.407,5.557c.7.342,1.429.63,2.157.923s1.468.571,2.22.8a21.29,21.29,0,0,0,4.6.867,44.518,44.518,0,0,0,4.642.251c1.477.02,7.364.02,8.841,0a44.521,44.521,0,0,0,4.642-.251,21.29,21.29,0,0,0,4.6-.867c.752-.232,1.494-.5,2.22-.8s1.46-.582,2.157-.923a23.553,23.553,0,0,0,7.407-5.557l3.258-3.245a21.176,21.176,0,0,1,3.779-2.587A21.2,21.2,0,0,0,2267.24,1231.536Z" transform="translate(-225.681 -672.876)"/><path d="M2265.177,1209.463a2.008,2.008,0,0,0-1-.21,8.666,8.666,0,0,0-1.953.643c-.345.187-.7.33-1.071.539-.358.186-.771.418-1.1.551a5.842,5.842,0,0,1-2.26.483,7.061,7.061,0,0,1-2.311-.406l-1.123-.37-1.1-.443a24.227,24.227,0,0,0-4.553-1.467,36.135,36.135,0,0,0-4.771-.645,27,27,0,0,0-4.828.151,16.407,16.407,0,0,1-4.527-.136c-.778-.1-1.569-.218-2.378-.287-.647-.042-3.276-.042-3.924,0-.809.068-1.6.186-2.378.287a16.406,16.406,0,0,1-4.527.136,27,27,0,0,0-4.827-.151,36.142,36.142,0,0,0-4.771.645,24.253,24.253,0,0,0-4.553,1.467l-1.1.443-1.123.37a7.058,7.058,0,0,1-2.311.406,5.844,5.844,0,0,1-2.26-.483c-.325-.132-.738-.365-1.1-.551-.366-.209-.725-.352-1.071-.539a8.661,8.661,0,0,0-1.953-.643,2.008,2.008,0,0,0-1,.21,8.644,8.644,0,0,1-1.641.65,3.9,3.9,0,0,0,1.982,1.333,12.975,12.975,0,0,0,2.343.534c.8.111,1.569.212,2.378.259a10.677,10.677,0,0,0,2.428-.16,31.315,31.315,0,0,0,4.583-1.355,23.745,23.745,0,0,1,4.544-1.086c.779-.062,1.558-.079,2.329-.131s1.543-.1,2.314-.1a29.184,29.184,0,0,1,4.617.341,18.048,18.048,0,0,0,4.936-.011,25.2,25.2,0,0,1,3.7-.227h.835a25.2,25.2,0,0,1,3.7.227,18.049,18.049,0,0,0,4.936.011,29.192,29.192,0,0,1,4.617-.341c.772.008,1.545.039,2.315.1s1.551.068,2.33.131a23.745,23.745,0,0,1,4.544,1.086,31.33,31.33,0,0,0,4.583,1.355,10.684,10.684,0,0,0,2.429.16c.809-.047,1.582-.148,2.377-.259a12.968,12.968,0,0,0,2.344-.534,3.9,3.9,0,0,0,1.982-1.333A8.644,8.644,0,0,1,2265.177,1209.463Z" transform="translate(-217.292 -658.605)"/><path d="M2286.107,1211.6l-2.063.317c-1.373.248-2.765.321-4.142.462-1.384.1-2.777.083-4.155.13-.69.02-7.118.02-7.809,0-1.378-.047-2.771-.031-4.155-.13-1.377-.141-2.77-.215-4.142-.462l-2.063-.317-2.051-.376q2.017.574,4.044,1.075c1.34.378,2.725.588,4.1.865,1.378.244,2.771.376,4.159.569a36.849,36.849,0,0,0,8.032,0c1.387-.194,2.781-.325,4.159-.569,1.372-.277,2.756-.487,4.1-.865q2.027-.5,4.044-1.075Z" transform="translate(-258.889 -660.887)"/><g transform="translate(1994.183 503.471)"><g transform="translate(0)"><path d="M2248.037,1071.792a3.232,3.232,0,0,1,.948-2.5,4.415,4.415,0,0,1,2.379-1.087,8.669,8.669,0,0,1,4.914.725,10.4,10.4,0,0,1,3.8,3.094,11.091,11.091,0,0,1,2.034,4.371,23.847,23.847,0,0,0-3.689-2.99,13.389,13.389,0,0,0-3.445-1.608,9.327,9.327,0,0,0-1.586-.268,5,5,0,0,0-.758,0l-.364.012-.359.035-.694.127c0-.076,0-.135-.088-.135a.767.767,0,0,0-.264.114Z" transform="translate(-2248.032 -1068.108)"/></g></g><path d="M2293.432,1054.863a7.34,7.34,0,0,0,5.834.875,7.479,7.479,0,0,0,1.853-.838l.184.247a6.028,6.028,0,0,1-1.815,1.754,5.666,5.666,0,0,1-2.231.444,5.736,5.736,0,0,1-2.233-.443,6.8,6.8,0,0,1-1.818-1.737Z" transform="translate(-284.228 -555.729)"/><path d="M2330.38,1009.035a15.568,15.568,0,0,0,1.215,5.344l-.861,1.856A26.142,26.142,0,0,1,2330.38,1009.035Z" transform="translate(-309.145 -524.909)"/><g transform="translate(1998.22 570.936)"><g transform="translate(0)"><path d="M2260.359,1279.668c.525-.443,1.071-.863,1.623-1.279.569-.378,1.153-.731,1.732-1.1l.041-.018a28.549,28.549,0,0,1,2.823-1.311,22.535,22.535,0,0,1,3-1.008,26.6,26.6,0,0,1,12.581-.166,22.159,22.159,0,0,1,3.029.934,28.408,28.408,0,0,1,2.855,1.243l.042.017c.588.356,1.18.7,1.758,1.063.563.406,1.118.814,1.652,1.247-.662-.2-1.3-.426-1.936-.653-.658-.185-1.3-.4-1.95-.591l.042.017c-.987-.244-1.969-.5-2.955-.694-.986-.236-1.93-.372-2.919-.514a40.6,40.6,0,0,0-5.888-.355,41.242,41.242,0,0,0-5.88.5c-.985.167-1.927.327-2.907.586-.982.213-1.956.5-2.938.764l.041-.017c-.643.21-1.281.436-1.933.635C2261.649,1279.214,2261.014,1279.452,2260.359,1279.668Z" transform="translate(-2260.359 -1274.114)"/></g></g><g transform="translate(2021.428 421.402)"><path d="M2335.878,817.5a13.952,13.952,0,0,0-1.647,2.454c-.473.867-.893,1.764-1.281,2.673a48.949,48.949,0,0,0-1.725,4.779h1.118c.354-1.519.78-3.031,1.282-4.512.315-.919.662-1.826,1.062-2.706a13.645,13.645,0,0,1,1.419-2.5Z" transform="translate(-2331.225 -817.503)"/></g><g transform="translate(2129.762 435.934)"><g transform="translate(0 0)"><path d="M2662.032,880.607a46.236,46.236,0,0,0,4.355-4.187,43.485,43.485,0,0,0,3.717-4.68c1.141-1.632,2.09-3.38,3.092-5.089.492-.861,1.023-1.7,1.547-2.55a6.714,6.714,0,0,1,.939-1.2,5.13,5.13,0,0,1,1.337-1.023,5.54,5.54,0,0,1-.467,3.188,27.06,27.06,0,0,1-1.434,2.733,43.509,43.509,0,0,1-8.075,9.3A32.349,32.349,0,0,1,2662.032,880.607Z" transform="translate(-2662.032 -861.877)"/></g></g><g transform="translate(2084.424 581.845)"><g transform="translate(0)"><path d="M2594.934,1453.153c-6.143-3.655-12.121-7.581-18.125-11.457a134.783,134.783,0,0,1-17.3-12.934,123.4,123.4,0,0,1-15.092-15.7,104.187,104.187,0,0,1-6.446-8.917,79.976,79.976,0,0,1-5.337-9.722,98.532,98.532,0,0,1-3.864-10.417l-.781-2.665c-.263-.887-.531-1.774-.719-2.683-.4-1.8-.87-3.618-1.211-5.411a139.386,139.386,0,0,1-2.392-21.964c-.022-3.678-.1-7.357-.074-11.025l.41-10.962c.5-7.3.988-14.6,1.621-21.874.073,7.32,0,14.617-.059,21.906l.113,10.943.469,10.875c.961,14.437,3.549,28.861,9.364,41.883a76.631,76.631,0,0,0,5.058,9.363c1.953,3,3.952,5.906,6.164,8.7a133.814,133.814,0,0,0,14.412,15.756c2.586,2.465,5.269,4.771,8.029,7.035,2.742,2.293,5.584,4.374,8.5,6.478Z" transform="translate(-2523.588 -1307.426)"/></g></g><g transform="translate(2038.442 696.052)"><g transform="translate(0 0)"><path d="M2383.179,1690.959c.151-1.315.429-2.577.683-3.845.573-1.144,1-2.345,1.5-3.52l2.829-7.124c.959-2.377,4.138-11.153,5.248-13.458.563-1.149,1.1-2.309,1.715-3.433l1.744-3.414-1.567,3.5-1.49,3.529c-.981,2.356-4.025,11.167-4.849,13.577l-2.442,7.269c-.4,1.217-.877,2.406-1.236,3.64A37.285,37.285,0,0,1,2383.179,1690.959Z" transform="translate(-2383.179 -1656.165)"/></g></g><g transform="translate(2114.008 430.031)"><g transform="translate(0 0)"><path d="M2635.018,847.633a8.092,8.092,0,0,1,2.27-2.549,6.794,6.794,0,0,1,3.31-1.2,6.1,6.1,0,0,1,6.164,3.361,13.253,13.253,0,0,1,1.137,7.058,37.877,37.877,0,0,1-1.166,6.778c-1.11,4.416-2.737,8.594-3.6,12.953a83.778,83.778,0,0,0-1.224,13.352,76.725,76.725,0,0,1-1.367,13.556l-.388,1.676-.478,1.634c-.149.556-.35,1.152-.547,1.685l-.587,1.59c-.251.6-.468,1.073-.709,1.606s-.483,1.04-.739,1.557a31.253,31.253,0,0,1-1.707,3.033,43.438,43.438,0,0,1-9.013,10.443,40.755,40.755,0,0,1-11.97,6.706l-.477-1.078a56.994,56.994,0,0,0,10.851-7.465,50.7,50.7,0,0,0,8.4-10.012,45.758,45.758,0,0,0,5.452-11.873,66.063,66.063,0,0,0,2.129-13.129c.349-4.472.6-8.976,1.2-13.478s1.773-8.912,2.717-13.24c.473-2.171.873-4.325,1.134-6.49a20.161,20.161,0,0,0,.159-3.179,8.941,8.941,0,0,0-.623-2.979,5.135,5.135,0,0,0-1.8-2.291,5.665,5.665,0,0,0-2.906-.856,6.931,6.931,0,0,0-5.585,2.849Z" transform="translate(-2613.925 -843.854)"/></g></g><g transform="translate(2124.291 476.071)"><path d="M2645.324,996.191q.414-.268.826-.508l.782-.549.808-.481.769-.541a13.094,13.094,0,0,0,2.629-2.677,12.636,12.636,0,0,0,1.749-3.315l.273-.9.2-.917.264-.917c.061-.312.125-.628.2-.948.044.321.084.646.112.976l.014.992-.21.964-.287.944a13.226,13.226,0,0,1-1.832,3.472,13.7,13.7,0,0,1-2.749,2.8l-.8.567c-.284.165-.558.346-.844.508l-.94.312Q2645.8,996.1,2645.324,996.191Z" transform="translate(-2645.324 -984.438)"/></g><g transform="translate(2138.339 448.45)"><path d="M2688.219,900.1c.292.885.522,1.785.759,2.687.129.918.251,1.837.354,2.759q.3,2.765.391,5.548t-.042,5.561q-.069,1.389-.183,2.775c-.182.915-.355,1.827-.587,2.729l-.007-2.78q.113-1.374.181-2.752.128-2.755.041-5.515t-.387-5.5c-.1-.914-.219-1.826-.356-2.735Z" transform="translate(-2688.219 -900.097)"/></g><g transform="translate(2124.913 490.029)"><path d="M2647.223,1035.07l.845-.946c.323-.247.629-.513.926-.79a11.708,11.708,0,0,0,1.579-1.85,11.4,11.4,0,0,0,1.157-2.137q.227-.565.4-1.149c.2-.364.369-.746.559-1.137a8.58,8.58,0,0,1,.015,1.3q-.181.616-.42,1.211a12.009,12.009,0,0,1-1.218,2.249,12.285,12.285,0,0,1-1.659,1.945c-.311.293-.637.568-.971.835A7.373,7.373,0,0,1,2647.223,1035.07Z" transform="translate(-2647.223 -1027.061)"/></g><g transform="translate(1894.239 476.071)"><g transform="translate(0)"><path d="M1951.469,996.191q-.477-.1-.957-.219l-.94-.312c-.286-.161-.561-.343-.844-.508l-.805-.567a13.686,13.686,0,0,1-2.749-2.8,13.227,13.227,0,0,1-1.832-3.472l-.287-.944-.21-.964.014-.992c.028-.329.068-.655.112-.976.073.321.137.636.2.948l.264.917.2.917.273.9a12.644,12.644,0,0,0,1.749,3.315,13.105,13.105,0,0,0,2.629,2.677l.769.541.808.481.782.549Q1951.056,995.923,1951.469,996.191Z" transform="translate(-1942.846 -984.438)"/></g></g><g transform="translate(1887.275 448.45)"><g transform="translate(0)"><path d="M1923.119,900.1l-.164,2.775c-.137.909-.252,1.821-.356,2.735q-.3,2.742-.387,5.5t.041,5.515q.068,1.378.181,2.752l-.007,2.78c-.231-.9-.405-1.814-.587-2.729q-.114-1.386-.183-2.775-.129-2.778-.042-5.561t.391-5.548c.1-.922.225-1.84.354-2.759C1922.6,901.882,1922.828,900.982,1923.119,900.1Z" transform="translate(-1921.58 -900.097)"/></g></g><g transform="translate(1896.743 490.029)"><g transform="translate(0)"><path d="M1955.989,1035.07a7.342,7.342,0,0,1-1.212-.469c-.334-.267-.661-.541-.971-.835a12.3,12.3,0,0,1-1.66-1.945,11.967,11.967,0,0,1-1.218-2.249q-.24-.595-.42-1.211a8.644,8.644,0,0,1,.015-1.3c.19.391.354.773.559,1.137q.172.584.4,1.149a11.427,11.427,0,0,0,1.158,2.137,11.721,11.721,0,0,0,1.579,1.85c.3.277.6.544.926.79Z" transform="translate(-1950.492 -1027.061)"/></g></g><path d="M2652.894,867.08c.026-.752.1-1.5.179-2.251.152-.736.316-1.47.5-2.2a41.82,41.82,0,0,1,3.149-8.433q.51-1.006,1.065-1.987c.434-.618.868-1.232,1.339-1.818-.336.674-.679,1.337-.994,2.015q-.551.972-1.056,1.968a41.534,41.534,0,0,0-3.119,8.353c-.18.722-.346,1.448-.491,2.178C2653.26,865.626,2653.085,866.352,2652.894,867.08Z" transform="translate(-526.124 -418.22)"/><path d="M2187.509,946.192c-.151,2.309-.355,4.613-.628,6.906q-.377,3.443-.978,6.848a101.305,101.305,0,0,1-3.445,13.352c-1.388,4.4-2.836,8.806-4.147,13.26-1.322,4.5-2.237,9.045-3.389,13.495-1.131,4.475-2.3,8.928-3.585,13.345q-.967,3.311-2.03,6.589c-.7,2.191-1.482,4.333-2.221,6.556a110.3,110.3,0,0,1-4.868,12.792,64.814,64.814,0,0,1-6.927,11.594l-.063.084-.05.086a67.435,67.435,0,0,1-7.727,10.23c-2.872,3.272-5.92,6.337-8.922,9.628a255.875,255.875,0,0,1-18.494,18.5c-.8.734-1.646,1.436-2.475,2.149s-1.625,1.4-2.491,2.078a37.873,37.873,0,0,1-5.207,3.763,74.2,74.2,0,0,1-11.766,5.488,89.022,89.022,0,0,1-12.578,3.573c-1.071.213-2.145.419-3.225.588s-2.158.351-3.248.447c-1.332.121-6.681.121-8.013,0-1.09-.1-2.168-.268-3.248-.447s-2.154-.375-3.225-.588a88.988,88.988,0,0,1-12.578-3.573,74.17,74.17,0,0,1-11.765-5.488,37.848,37.848,0,0,1-5.208-3.763c-.866-.678-1.649-1.355-2.491-2.078s-1.672-1.415-2.476-2.149a256.017,256.017,0,0,1-18.494-18.5c-3-3.29-6.05-6.356-8.922-9.628a67.435,67.435,0,0,1-7.727-10.23l-.05-.086-.063-.084a64.814,64.814,0,0,1-6.927-11.594,110.385,110.385,0,0,1-4.868-12.792c-.738-2.223-1.524-4.365-2.22-6.556s-1.385-4.381-2.03-6.589c-1.289-4.417-2.455-8.87-3.585-13.345-1.153-4.45-2.068-8.995-3.39-13.495-1.311-4.454-2.759-8.86-4.147-13.26a101.382,101.382,0,0,1-3.445-13.352q-.606-3.406-.978-6.848c-.273-2.293-.477-4.6-.628-6.906-.015,2.314.024,4.63.132,6.947.129,2.314.331,4.631.615,6.933a101.369,101.369,0,0,0,2.763,13.674c1.224,4.474,2.5,8.911,3.625,13.38,1.147,4.419,1.95,8.975,2.986,13.512a252.494,252.494,0,0,0,7.4,26.854,113.36,113.36,0,0,0,4.928,13.155,63.955,63.955,0,0,0,7.2,12.133,70.656,70.656,0,0,0,8.093,10.6c1.477,1.654,2.988,3.268,4.51,4.861l2.3,2.366c.777.778,1.5,1.536,2.256,2.353,3.026,3.206,6.092,6.358,9.271,9.433s6.44,6.021,9.831,8.87c.836.722,1.7,1.4,2.553,2.094s1.74,1.415,2.62,2.064a38.6,38.6,0,0,0,5.593,3.724,68.881,68.881,0,0,0,12.287,5.1,89.967,89.967,0,0,0,12.9,2.942,74.173,74.173,0,0,0,21.2,0,89.982,89.982,0,0,0,12.9-2.942,68.856,68.856,0,0,0,12.287-5.1,38.6,38.6,0,0,0,5.593-3.724c.88-.649,1.779-1.382,2.62-2.064s1.716-1.372,2.553-2.094c3.391-2.848,6.654-5.809,9.832-8.87s6.244-6.227,9.27-9.433c.757-.817,1.48-1.575,2.257-2.353l2.3-2.366c1.523-1.594,3.033-3.207,4.51-4.861a70.66,70.66,0,0,0,8.093-10.6,63.941,63.941,0,0,0,7.2-12.133,113.451,113.451,0,0,0,4.928-13.155,252.609,252.609,0,0,0,7.4-26.854c1.036-4.537,1.839-9.093,2.986-13.512,1.13-4.469,2.4-8.906,3.625-13.38a101.218,101.218,0,0,0,2.763-13.674c.284-2.3.486-4.619.615-6.933C2187.485,950.822,2187.523,948.506,2187.509,946.192Z" transform="translate(-61.868 -482.646)"/><g transform="translate(1870.57 581.845)"><g transform="translate(0)"><path d="M1870.57,1453.153c6.143-3.655,12.121-7.581,18.125-11.457a134.766,134.766,0,0,0,17.3-12.934,123.355,123.355,0,0,0,15.093-15.7,104.132,104.132,0,0,0,6.446-8.917,79.978,79.978,0,0,0,5.337-9.722,98.476,98.476,0,0,0,3.864-10.417l.781-2.665c.263-.887.53-1.774.719-2.683.4-1.8.869-3.618,1.211-5.411a139.358,139.358,0,0,0,2.392-21.964c.022-3.678.1-7.357.074-11.025l-.41-10.962c-.5-7.3-.988-14.6-1.621-21.874-.073,7.32,0,14.617.059,21.906l-.114,10.943-.468,10.875c-.961,14.437-3.549,28.861-9.364,41.883a76.663,76.663,0,0,1-5.058,9.363c-1.953,3-3.952,5.906-6.164,8.7a133.776,133.776,0,0,1-14.412,15.756c-2.586,2.465-5.268,4.771-8.029,7.035-2.742,2.293-5.584,4.374-8.5,6.478Z" transform="translate(-1870.57 -1307.426)"/></g></g><g transform="translate(1878.302 430.031)"><g transform="translate(0 0)"><path d="M1907.118,847.633a8.086,8.086,0,0,0-2.27-2.549,6.791,6.791,0,0,0-3.31-1.2,6.1,6.1,0,0,0-6.164,3.361,13.255,13.255,0,0,0-1.136,7.058,37.9,37.9,0,0,0,1.166,6.778c1.11,4.416,2.737,8.594,3.6,12.953a83.807,83.807,0,0,1,1.224,13.352,76.748,76.748,0,0,0,1.367,13.556l.388,1.676.478,1.634c.149.556.351,1.152.547,1.685l.586,1.59c.251.6.469,1.073.709,1.606s.483,1.04.739,1.557a31.2,31.2,0,0,0,1.707,3.033,43.443,43.443,0,0,0,9.013,10.443,40.754,40.754,0,0,0,11.97,6.706l.477-1.078a56.985,56.985,0,0,1-10.851-7.465,50.694,50.694,0,0,1-8.4-10.012,45.741,45.741,0,0,1-5.452-11.873,66.045,66.045,0,0,1-2.129-13.129c-.35-4.472-.6-8.976-1.2-13.478s-1.773-8.912-2.717-13.24c-.473-2.171-.873-4.325-1.135-6.49a20.191,20.191,0,0,1-.159-3.179,8.941,8.941,0,0,1,.623-2.979,5.136,5.136,0,0,1,1.8-2.291,5.667,5.667,0,0,1,2.906-.856,6.932,6.932,0,0,1,5.585,2.849Z" transform="translate(-1894.182 -843.854)"/></g></g><path d="M2362.024,1036.384a28.626,28.626,0,0,0-2.235-5.363,26.012,26.012,0,0,0-3.312-4.734c.028.049.055.1.083.148-.068-.084-.13-.172-.2-.255a49.492,49.492,0,0,1,2.424,5.17,42.121,42.121,0,0,1,1.737,5.38,21.041,21.041,0,0,1,.526,2.737,12.99,12.99,0,0,1,0,2.736,6.725,6.725,0,0,1-.782,2.538,3.864,3.864,0,0,1-1.891,1.67l-.024-.045c-.208.12-.524.273-.829.423-.464.2-.988.4-1.3.533-.26.108-.526.208-.8.293a1.866,1.866,0,0,1-.821.138.827.827,0,0,0,.318.078,7.8,7.8,0,0,0,1.337,0c.291-.015.582-.046.873-.087a9.776,9.776,0,0,0,1.738-.409l-.018-.033a5.464,5.464,0,0,0,3.878-5.063A13.544,13.544,0,0,0,2362.024,1036.384Z" transform="translate(-325.518 -536.439)"/><g transform="translate(2015.828 503.673)"><path d="M2314.124,1076.371a15.09,15.09,0,0,1,2.693-3.97,12.784,12.784,0,0,1,3.825-2.919,6.358,6.358,0,0,1,4.852-.46,4.856,4.856,0,0,1,2.109,1.373,2.832,2.832,0,0,1,.732,2.519l-.772-.192a1.933,1.933,0,0,0-1.6-.888,6.233,6.233,0,0,0-1.485.008,8.111,8.111,0,0,0-1.064.329c-.376.139-.807.3-1.256.506-.953.431-2.014.965-3.281,1.645-1.269.659-2.592,1.335-4.4,2.214Z" transform="translate(-2314.124 -1068.724)"/></g><path d="M2233,1068.807a24.747,24.747,0,0,0,8.89,1.972,23.127,23.127,0,0,1-8.021-3.45,9.81,9.81,0,0,1-3.511-4.083,12.226,12.226,0,0,1-.795-4.01c.01-.1.014-.209.026-.312-.009.045-.014.091-.023.136,0-.045,0-.09,0-.135-.012.1-.018.194-.029.29a11.983,11.983,0,0,0-.124,4.25,7.147,7.147,0,0,0,.751,2.212A7.037,7.037,0,0,0,2233,1068.807Z" transform="translate(-241.236 -558.46)"/><path d="M2328.826,885.211c-.126-4.749-.311-9.5-.2-14.245.154-5.064.649-10.115,1.053-15.172l-.6-.044a3.1,3.1,0,0,1-.521,0c-.215,5.068-.523,10.138-.487,15.222.068,4.76.43,9.5.733,14.24.015.322.031.643.045.965,0-.153-.009-.306-.013-.458.01.153.02.305.03.458C2328.856,885.855,2328.841,885.533,2328.826,885.211Z" transform="translate(-307.677 -421.822)"/><g transform="translate(2042.873 419.671)"><g transform="translate(0 9.569)"><path d="M2396.71,853.529a34.181,34.181,0,0,1,5.335-4.965,36.556,36.556,0,0,1,6.213-3.829,32.28,32.28,0,0,1,6.879-2.445,36.175,36.175,0,0,1,7.255-.85,50.928,50.928,0,0,1,14.406,2.153,100.889,100.889,0,0,1,13.683,4.985l-.034.087c-4.6-1.544-9.124-3.292-13.783-4.6a59.319,59.319,0,0,0-7.067-1.584,43.24,43.24,0,0,0-7.2-.607,35.591,35.591,0,0,0-7.174.786,31.909,31.909,0,0,0-6.808,2.4,36.186,36.186,0,0,0-6.165,3.774,52.843,52.843,0,0,0-5.427,4.8Z" transform="translate(-2396.71 -841.438)"/></g><g transform="translate(40.517 19.171)"><path d="M2520.43,878.209a27.805,27.805,0,0,0,6.61-2.723,18.846,18.846,0,0,0,2.917-2.069,13.9,13.9,0,0,0,2.39-2.659l.061.038a15.008,15.008,0,0,1-5.216,4.948,20.1,20.1,0,0,1-6.732,2.609Z" transform="translate(-2520.43 -870.758)"/></g><g transform="translate(35.98 26.761)"><path d="M2506.586,894.2c.221-.023.439-.038.656-.044s.431-.041.645-.068c.434-.009.852-.112,1.292-.153l.042.143a2.6,2.6,0,0,1-.627.274,3.326,3.326,0,0,1-1.351.115,2.518,2.518,0,0,1-.664-.172Z" transform="translate(-2506.577 -893.935)"/></g><g transform="translate(0.761 2.014)"><path d="M2399.035,833.742q4.2-4.425,8.7-8.556c.74-.7,1.529-1.346,2.309-2.006s1.532-1.354,2.389-1.923a26.3,26.3,0,0,1,5.428-2.888l.21.558a25.789,25.789,0,0,0-5.382,2.708c-.853.538-1.6,1.224-2.4,1.846s-1.585,1.26-2.341,1.941q-4.587,4.014-8.89,8.345Z" transform="translate(-2399.035 -818.369)"/></g><g transform="translate(21.284 0)"><path d="M2461.7,813.668a32.448,32.448,0,0,1,6.581-1.311,32.9,32.9,0,0,1,6.718.068,29.76,29.76,0,0,1,6.545,1.5,25.526,25.526,0,0,1,5.969,3.034l-.174.268a29.585,29.585,0,0,0-12.421-4.065,34.776,34.776,0,0,0-6.569-.047,37.84,37.84,0,0,0-6.484,1.122Z" transform="translate(-2461.701 -812.218)"/></g><g transform="translate(48.535 6.057)"><path d="M2545.184,830.714l2.011,1.571-.1.142-2.183-1.322Z" transform="translate(-2544.915 -830.714)"/></g><g transform="translate(5.56 19.676)"><path d="M2414.417,872.3a9.075,9.075,0,0,0,.556,1.4,4.453,4.453,0,0,0,.39.646,1.583,1.583,0,0,0,.554.509,1.58,1.58,0,0,1-.7-.366,4.7,4.7,0,0,1-.574-.562,9.637,9.637,0,0,1-.952-1.3Z" transform="translate(-2413.689 -872.301)"/></g><g transform="translate(5.199 14.097)"><path d="M2412.585,860.28q3.137-2.647,6.5-5.015l.332.495q-3.438,2.206-6.682,4.712Z" transform="translate(-2412.585 -855.265)"/></g><g transform="translate(21.412 26.021)"><path d="M2468.53,892.35l-5.385-.565-1.052-.109v.482c.333.038.667.077,1,.11,1.8.2,3.6.324,5.407.437s3.611.2,5.417.265l.008-.14Q2471.224,892.622,2468.53,892.35Z" transform="translate(-2462.092 -891.676)"/></g><g transform="translate(29.572 31.961)"><path d="M2487.012,913.093a31.187,31.187,0,0,0,7.332-.514,20.775,20.775,0,0,0,3.516-1,11.275,11.275,0,0,0,3.124-1.77l.376.464a11.785,11.785,0,0,1-3.343,1.73,21.127,21.127,0,0,1-3.619.875,31.337,31.337,0,0,1-7.386.229Z" transform="translate(-2487.011 -909.812)"/></g><g transform="translate(47.608 28.271)"><path d="M2542.083,900.357l2.907-1.813.128.183-2.692,2.118Z" transform="translate(-2542.083 -898.545)"/></g><g transform="translate(28.788 5.043)"><path d="M2488.575,827.621a7.96,7.96,0,0,1-3.683,5.144l-.276-.5a7.7,7.7,0,0,0,3.945-4.643Z" transform="translate(-2484.616 -827.618)"/></g><g transform="translate(31.905 4.027)"><path d="M2495.729,824.515a8.935,8.935,0,0,1,.033,3.031,5.753,5.753,0,0,1-.457,1.473,1.666,1.666,0,0,1-1.143,1.021l-.028-.069a4,4,0,0,0,.887-1.1,5.5,5.5,0,0,0,.5-1.375,7.492,7.492,0,0,0,.188-2.981Z" transform="translate(-2494.134 -824.515)"/></g><g transform="translate(33.896 6.413)"><path d="M2502.005,831.8a4.6,4.6,0,0,1-.2,2.234,3.547,3.547,0,0,1-.562,1.009,1.324,1.324,0,0,1-1.006.56l-.024-.071c.294-.246.537-.45.789-.7a3.272,3.272,0,0,0,.581-.89,3.86,3.86,0,0,0,.406-2.141Z" transform="translate(-2500.215 -831.801)"/></g><g transform="translate(42.957 9.247)"><path d="M2531.9,840.459a6.039,6.039,0,0,1-1.56,2.06,4.285,4.285,0,0,1-1.136.679,1.5,1.5,0,0,1-1.318-.017l.019-.072a5.913,5.913,0,0,0,1.191-.212,4,4,0,0,0,1.1-.568,5.086,5.086,0,0,0,1.692-1.876Z" transform="translate(-2527.883 -840.453)"/></g><g transform="translate(38.964 8.262)"><path d="M2517.762,837.447a4.3,4.3,0,0,1-.494,1.882,3.1,3.1,0,0,1-.619.791,1.067,1.067,0,0,1-.951.32l-.01-.074c.284-.179.506-.319.755-.491a2.809,2.809,0,0,0,.62-.672,3.482,3.482,0,0,0,.684-1.757Z" transform="translate(-2515.688 -837.447)"/></g><g transform="translate(28.444 5.795)"><path d="M2484.245,829.913a4.311,4.311,0,0,1,.329,1.918,3.092,3.092,0,0,1-.236.976,1.066,1.066,0,0,1-.732.685l-.04-.063c.184-.281.328-.5.484-.759a2.808,2.808,0,0,0,.286-.868,3.477,3.477,0,0,0-.1-1.883Z" transform="translate(-2483.565 -829.913)"/></g><g transform="translate(26.117 6.272)"><path d="M2477.463,831.371a3.242,3.242,0,0,1,.051,1.591,2.516,2.516,0,0,1-.325.76.843.843,0,0,1-.7.444l-.031-.067a6.056,6.056,0,0,1,.469-.563,2.248,2.248,0,0,0,.355-.643,2.541,2.541,0,0,0,.166-1.518Z" transform="translate(-2476.459 -831.371)"/></g><g transform="translate(18.641 6.983)"><path d="M2453.643,833.541a3.245,3.245,0,0,1,.6,1.474,2.533,2.533,0,0,1-.041.827.844.844,0,0,1-.5.659l-.053-.052a6.077,6.077,0,0,1,.244-.691,2.232,2.232,0,0,0,.109-.727,2.538,2.538,0,0,0-.372-1.481Z" transform="translate(-2453.632 -833.541)"/></g><g transform="translate(48.764 9.734)"><path d="M2550.026,841.941a4.711,4.711,0,0,1-.351,1.791,6.4,6.4,0,0,1-.908,1.605,5.75,5.75,0,0,1-1.373,1.253,3.024,3.024,0,0,1-1.767.546l-.012-.073a14.825,14.825,0,0,0,1.61-.744,5.465,5.465,0,0,0,1.356-1.134,5.192,5.192,0,0,0,1.43-3.243Z" transform="translate(-2545.615 -841.941)"/></g><g transform="translate(51.325 12.298)"><path d="M2559.622,849.778a4.715,4.715,0,0,1-1.078,1.473,6.371,6.371,0,0,1-1.5,1.069,5.757,5.757,0,0,1-1.775.553,3.022,3.022,0,0,1-1.832-.255l.02-.072a14.7,14.7,0,0,0,1.774.009,5.468,5.468,0,0,0,1.709-.453,5.19,5.19,0,0,0,2.669-2.331Z" transform="translate(-2553.435 -849.772)"/></g><g transform="translate(45.966 11.579)"><path d="M2542.083,847.587a7,7,0,0,1-2.325,1.462,4.766,4.766,0,0,1-1.373.287,1.55,1.55,0,0,1-1.313-.471l.043-.06a4.77,4.77,0,0,0,1.265.212,4.489,4.489,0,0,0,1.3-.2,5.905,5.905,0,0,0,2.391-1.244Z" transform="translate(-2537.071 -847.576)"/></g><g transform="translate(53.137 15.024)"><path d="M2564.085,858.107a7.012,7.012,0,0,1-2.465,1.211,4.772,4.772,0,0,1-1.4.143,1.553,1.553,0,0,1-1.258-.606l.05-.055a4.773,4.773,0,0,0,1.236.343,4.489,4.489,0,0,0,1.317-.059,5.91,5.91,0,0,0,2.507-.988Z" transform="translate(-2558.966 -858.096)"/></g><g transform="translate(41.129 8.66)"><path d="M2525.451,838.665a7.906,7.906,0,0,1-1.031,2.366,5.009,5.009,0,0,1-.866.992,1.356,1.356,0,0,1-1.254.382l0-.074a3.979,3.979,0,0,0,1.05-.557,4.7,4.7,0,0,0,.872-.883,6.416,6.416,0,0,0,1.212-2.23Z" transform="translate(-2522.299 -838.661)"/></g><g transform="translate(36.417 5.399)"><path d="M2513.227,828.708a7.082,7.082,0,0,1-.821,1.738,11.132,11.132,0,0,1-1.164,1.543,8.782,8.782,0,0,1-1.456,1.292,2.134,2.134,0,0,1-1.874.449l.016-.073a3.955,3.955,0,0,0,1.682-.644,8.5,8.5,0,0,0,1.457-1.19,8.276,8.276,0,0,0,2.146-3.12Z" transform="translate(-2507.912 -828.704)"/></g><g transform="translate(32.206 4.665)"><path d="M2498.247,826.473a12.232,12.232,0,0,1-.939,3.088,7.175,7.175,0,0,1-1.908,2.693l-.345-.486a6.776,6.776,0,0,0,1.965-2.352,12.074,12.074,0,0,0,1.179-2.951Z" transform="translate(-2495.054 -826.464)"/></g><g transform="translate(34.343 27.09)"><path d="M2503.064,898.755a3.77,3.77,0,0,0-.3-2,7.593,7.593,0,0,0-1.18-1.666l.157-.145a3.133,3.133,0,0,1,.7.785,4.978,4.978,0,0,1,.493.95,3.57,3.57,0,0,1,.144,2.082Z" transform="translate(-2501.58 -894.94)"/></g><g transform="translate(34.895 27.032)"><path d="M2505.191,898.16a4.605,4.605,0,0,0-.56-1.943,3.292,3.292,0,0,0-.569-.813,2.914,2.914,0,0,0-.8-.562l.011-.074a1.168,1.168,0,0,1,.968.463,3.518,3.518,0,0,1,.562.9,5.171,5.171,0,0,1,.4,2.027Z" transform="translate(-2503.264 -894.763)"/></g><g transform="translate(39.295 26.459)"><path d="M2518.234,895.48a2.542,2.542,0,0,0-.409-1.443,2.183,2.183,0,0,0-.493-.555,4.261,4.261,0,0,0-.631-.4l.017-.072a1.14,1.14,0,0,1,.74.317,2.336,2.336,0,0,1,.487.637,2.543,2.543,0,0,1,.3,1.515Z" transform="translate(-2516.701 -893.013)"/></g><g transform="translate(46.621 24.019)"><path d="M2543.317,886.752a3.828,3.828,0,0,0-2.025-.97,3.284,3.284,0,0,0-1.119,0,4.042,4.042,0,0,0-1.059.361l-.044-.06a1.859,1.859,0,0,1,1.071-.5,3.44,3.44,0,0,1,1.176.057,3.828,3.828,0,0,1,2.012,1.1Z" transform="translate(-2539.069 -885.562)"/></g><g transform="translate(48.347 22.205)"><path d="M2548.5,880.323a3.832,3.832,0,0,0-2.245-.083,3.289,3.289,0,0,0-1.026.447,4.026,4.026,0,0,0-.827.753l-.064-.037a1.858,1.858,0,0,1,.784-.882,3.443,3.443,0,0,1,1.1-.417,3.827,3.827,0,0,1,2.282.2Z" transform="translate(-2544.341 -880.022)"/></g><g transform="translate(38.385 26.762)"><path d="M2515.23,897.395a4.606,4.606,0,0,0-1.31-3.278l.2-.179a4.765,4.765,0,0,1,1.163,3.461Z" transform="translate(-2513.921 -893.937)"/></g><g transform="translate(43.272 25.862)"><path d="M2530.378,893.658a2.549,2.549,0,0,0-.409-1.443,2.171,2.171,0,0,0-.493-.555,4.194,4.194,0,0,0-.63-.4l.017-.073a1.145,1.145,0,0,1,.74.317,2.345,2.345,0,0,1,.487.637,2.547,2.547,0,0,1,.3,1.515Z" transform="translate(-2528.845 -891.191)"/></g><g transform="translate(42.927 25.99)"><path d="M2529.1,895.039a4.6,4.6,0,0,0-1.31-3.278l.2-.18a4.763,4.763,0,0,1,1.163,3.461Z" transform="translate(-2527.79 -891.581)"/></g><g transform="translate(36.582 7.249)"><path d="M2513.9,834.355a7.089,7.089,0,0,1-5.42,4.145l-.062-.593a6.79,6.79,0,0,0,5.476-3.554Z" transform="translate(-2508.416 -834.352)"/></g><g transform="translate(38.826 7.206)"><path d="M2515.268,838.407a13.96,13.96,0,0,0,4.151-1.278,9.191,9.191,0,0,0,1.806-1.193,5.292,5.292,0,0,0,1.359-1.714,6.346,6.346,0,0,1-1.167,1.909,6.874,6.874,0,0,1-1.78,1.409,12.7,12.7,0,0,1-4.308,1.366Z" transform="translate(-2515.268 -834.222)"/></g><g transform="translate(42.383 8.509)"><path d="M2526.208,842.12a2.208,2.208,0,0,1,.666-.015c.221.012.445.012.668.01.449-.006.9-.031,1.355-.058a8.876,8.876,0,0,0,2.641-.312,6.088,6.088,0,0,0,2.283-1.337,5.823,5.823,0,0,0,1.529-2.205,5.263,5.263,0,0,1-1.363,2.375,6.413,6.413,0,0,1-2.31,1.558,8.224,8.224,0,0,1-2.755.4c-.457.023-.915.044-1.378.045-.231,0-.464,0-.7-.017a2.638,2.638,0,0,0-.72.006Z" transform="translate(-2526.129 -838.202)"/></g><g transform="translate(46.672 12.304)"><path d="M2539.227,851.329a3.788,3.788,0,0,0,1.376-.271l1.319-.431,1.315-.443.657-.223c.227-.053.42-.2.678-.166-.177.192-.414.218-.62.328l-.64.272c-.428.178-.85.37-1.282.535l-1.291.51a4.1,4.1,0,0,1-1.341.368Z" transform="translate(-2539.227 -849.79)"/></g><g transform="translate(49.521 13.631)"><path d="M2548.005,855.08a3.636,3.636,0,0,0,1.25.035,10.088,10.088,0,0,0,1.311-.229,10.248,10.248,0,0,0,1.282-.4,4.447,4.447,0,0,0,1.181-.642,3.866,3.866,0,0,1-1.088.843,7.455,7.455,0,0,1-1.265.56,8.085,8.085,0,0,1-1.348.344,2.258,2.258,0,0,1-1.4-.181Z" transform="translate(-2547.925 -853.841)"/></g><g transform="translate(13.086 10.241)"><path d="M2436.7,843.491a1.446,1.446,0,0,1,.407.452,2.5,2.5,0,0,1,.222.574,2.549,2.549,0,0,1,.079.619.641.641,0,0,1-.264.574l-.238-.1a2.141,2.141,0,0,0-.238-2.091Z" transform="translate(-2436.67 -843.491)"/></g><g transform="translate(15.883 8.337)"><path d="M2446.323,837.676a3.518,3.518,0,0,1-.09,1.613,3.768,3.768,0,0,1-.786,1.451l-.238-.229a3.521,3.521,0,0,0,.853-1.279,3.78,3.78,0,0,0,.245-1.553Z" transform="translate(-2445.209 -837.676)"/></g><g transform="translate(19.659 6.365)"><path d="M2456.74,835.347c.35-.6.706-1.179,1.021-1.784a6.826,6.826,0,0,0,.722-1.908,6.955,6.955,0,0,1-.494,2.01c-.243.649-.532,1.281-.8,1.907Z" transform="translate(-2456.74 -831.655)"/></g><g transform="translate(21.982 4.411)"><path d="M2465.687,825.687a6.639,6.639,0,0,1-.137,2.985,8.5,8.5,0,0,1-1.247,2.782l-.468-.37a8.045,8.045,0,0,0,1.415-2.5,6.471,6.471,0,0,0,.407-2.888Z" transform="translate(-2463.834 -825.687)"/></g><g transform="translate(23.891 4.713)"><path d="M2472.117,826.611a4.953,4.953,0,0,1-.236,2.981,5.264,5.264,0,0,1-1.889,2.442l-.328-.535a5,5,0,0,0,2.436-4.885Z" transform="translate(-2469.664 -826.611)"/></g><g transform="translate(26.566 7.88)"><path d="M2479.439,836.281l-1.136,2.2-.472-.318Z" transform="translate(-2477.831 -836.281)"/></g><g transform="translate(33.161 3.26)"><path d="M2504.76,822.172a14.513,14.513,0,0,1-1.907,5.114,6.036,6.036,0,0,1-2.079,1.861,4.317,4.317,0,0,1-2.806.494l.122-.584a3.8,3.8,0,0,0,2.484-.311,5.67,5.67,0,0,0,2.039-1.638A14.373,14.373,0,0,0,2504.76,822.172Z" transform="translate(-2497.969 -822.172)"/></g><g transform="translate(31.346 27.32)"><path d="M2493.357,899.188a3.9,3.9,0,0,0,.018-1.9,2.9,2.9,0,0,0-.347-.872l-.267-.376c-.1-.119-.217-.214-.333-.334l.035-.066a1.3,1.3,0,0,1,.753.667,3.1,3.1,0,0,1,.307.951,3.976,3.976,0,0,1-.151,1.934Z" transform="translate(-2492.428 -895.641)"/></g><g transform="translate(44.775 25.013)"><path d="M2536.774,890.3a3.9,3.9,0,0,0-1.481-1.189,2.894,2.894,0,0,0-.9-.267l-.461-.024c-.155.005-.3.038-.469.055l-.03-.068a1.3,1.3,0,0,1,.99-.178,3.081,3.081,0,0,1,.937.348,3.964,3.964,0,0,1,1.425,1.316Z" transform="translate(-2533.434 -888.596)"/></g><g transform="translate(23.388 26.459)"><path d="M2469.661,895.48a2.548,2.548,0,0,0-.409-1.443,2.171,2.171,0,0,0-.493-.555,4.269,4.269,0,0,0-.63-.4l.016-.072a1.14,1.14,0,0,1,.741.317,2.346,2.346,0,0,1,.487.637,2.548,2.548,0,0,1,.3,1.515Z" transform="translate(-2468.128 -893.013)"/></g><g transform="translate(26.854 26.651)"><path d="M2478.9,896.975a3.591,3.591,0,0,0,.39-1.715,2.6,2.6,0,0,0-.152-.855,2.685,2.685,0,0,0-.425-.748l.046-.058a1.217,1.217,0,0,1,.565.742,2.745,2.745,0,0,1,.1.92,3.538,3.538,0,0,1-.516,1.721Z" transform="translate(-2478.71 -893.599)"/></g><g transform="translate(28.621 27.072)"><path d="M2486.061,897.036a2.544,2.544,0,0,0-.673-1.34,2.173,2.173,0,0,0-.588-.453,4.274,4.274,0,0,0-.694-.271l0-.074a1.143,1.143,0,0,1,.787.172,2.349,2.349,0,0,1,.6.534,2.544,2.544,0,0,1,.583,1.431Z" transform="translate(-2484.105 -894.884)"/></g><g transform="translate(44.207 25.575)"><path d="M2533.627,892.974a3.052,3.052,0,0,0-.583-1.6,2.477,2.477,0,0,0-.6-.6,3.456,3.456,0,0,0-.75-.385l.01-.074a1.279,1.279,0,0,1,.857.3,2.635,2.635,0,0,1,.594.68,3.045,3.045,0,0,1,.483,1.68Z" transform="translate(-2531.699 -890.313)"/></g><g transform="translate(41.148 26.621)"><path d="M2524.314,895.659a2.55,2.55,0,0,0-.673-1.34,2.177,2.177,0,0,0-.589-.453,4.23,4.23,0,0,0-.694-.271l0-.074a1.147,1.147,0,0,1,.787.172,2.332,2.332,0,0,1,.6.533,2.547,2.547,0,0,1,.584,1.431Z" transform="translate(-2522.358 -893.508)"/></g><g transform="translate(41.139 26.582)"><path d="M2523.676,895.7a3.79,3.79,0,0,0-.425-1.305,2.411,2.411,0,0,0-.392-.547,1.712,1.712,0,0,0-.528-.382l.007-.074a.792.792,0,0,1,.667.322,2.562,2.562,0,0,1,.371.619,3.663,3.663,0,0,1,.315,1.367Z" transform="translate(-2522.33 -893.389)"/></g><g transform="translate(22.936 12.132)"><path d="M2474.846,853.4a3.823,3.823,0,0,1-1.3,2.759,4.232,4.232,0,0,1-2.736,1.06,4.067,4.067,0,0,1-2.767-1.031,3.88,3.88,0,0,1-1.3-2.788,4.04,4.04,0,0,1,1.16-2.918,4.1,4.1,0,0,1,2.9-1.217,3.978,3.978,0,0,1,2.9,1.224A4.071,4.071,0,0,1,2474.846,853.4Zm-1.389,0a2.989,2.989,0,0,0-.781-1.931,2.589,2.589,0,0,0-1.867-.841,2.473,2.473,0,0,0-1.86.848,3.037,3.037,0,0,0-.761,1.925,3.21,3.21,0,0,0,.624,2.055,2.56,2.56,0,0,0,2,1.034,2.473,2.473,0,0,0,2.028-1A3.275,3.275,0,0,0,2473.458,853.4Z" transform="translate(-2466.745 -849.264)"/></g><g transform="translate(16.592 10.402)"><path d="M2488.852,846.02h-1l-.257.212a8.029,8.029,0,0,1,.772,9.316,9.463,9.463,0,0,1-3.721,3.479,10.506,10.506,0,0,1-4.321,1.1v.162a10.7,10.7,0,0,0,8.6-4.389,8.663,8.663,0,0,0,1.552-5.236A8.753,8.753,0,0,0,2488.852,846.02Z" transform="translate(-2469.531 -845.353)"/><path d="M2455.8,859.234a9.954,9.954,0,0,1-1.541-.441,9.455,9.455,0,0,1-4.895-4.971,9.2,9.2,0,0,1-.391-1.211,8.743,8.743,0,0,1-.169-1.254,7.731,7.731,0,0,1,.225-2.484,10.432,10.432,0,0,1,2.184-3.951l-1.5.033a8.229,8.229,0,0,0-1.23,1.694,8.359,8.359,0,0,0-.958,2.542,7.2,7.2,0,0,0-.147,1.379,8.824,8.824,0,0,0,.146,1.371,9.469,9.469,0,0,0,.345,1.332,9.842,9.842,0,0,0,.572,1.248,8.739,8.739,0,0,0,1.683,2.134,9.754,9.754,0,0,0,2.184,1.571,10.43,10.43,0,0,0,1.875.784c.19.08.381.157.571.233.326.1.656.2.987.282l.01-.128.048.009Z" transform="translate(-2447.376 -844.614)"/><path d="M2458.1,858.6a7.446,7.446,0,0,1-1.313-.451,9.06,9.06,0,0,1-4.169-5.076,10.847,10.847,0,0,1-.333-1.236,10.607,10.607,0,0,1-.144-1.281,9.421,9.421,0,0,1,.192-2.536,11.409,11.409,0,0,1,1.861-4.035l-1.277.034a8.5,8.5,0,0,0-1.048,1.73,9.64,9.64,0,0,0-.816,2.6,8.749,8.749,0,0,0-.125,1.408,10.688,10.688,0,0,0,.125,1.4,11.231,11.231,0,0,0,.294,1.36,11.1,11.1,0,0,0,.487,1.274,8.876,8.876,0,0,0,1.433,2.179,8.552,8.552,0,0,0,1.861,1.6,8.13,8.13,0,0,0,1.6.8c.162.081.324.16.486.238.277.105.559.2.841.288l.009-.131.041.01Z" transform="translate(-2449.766 -843.982)"/><path d="M2488.5,846.02h-1.431a8.047,8.047,0,0,1,1.349,8.843,9.466,9.466,0,0,1-3.357,3.831,10.5,10.5,0,0,1-4.189,1.528l.016.161a10.7,10.7,0,0,0,8.117-5.221,8.44,8.44,0,0,0-.5-9.142Z" transform="translate(-2469.905 -845.353)"/></g><g transform="translate(18.534 9.887)"><path d="M2453.3,843.745a3.122,3.122,0,0,0,.509-.309c.163-.151.344-.2.489-.477.143-.3.341-.26.526-.3a5.075,5.075,0,0,1,.563-.066c.758-.023,1.518.03,2.264-.039,1.5-.12,3-.139,4.5-.144a37.76,37.76,0,0,1,4.49.283q1.113.166,2.217.377a2.725,2.725,0,0,1,2.068,1.073l-.242,1.136a7.653,7.653,0,0,0-2.086-.658q-1.067-.218-2.144-.395a41.977,41.977,0,0,0-4.34-.484,43.213,43.213,0,0,0-4.375-.035c-.729.036-1.463.042-2.189.136l-.544.068a.892.892,0,0,0-.529.162,2.845,2.845,0,0,1-1.054.313Z" transform="translate(-2453.305 -842.41)"/></g></g><g transform="translate(2032.687 391.825)"><g transform="translate(12.271 7.083)"><path d="M2464.734,760.027c-5.057-1.915-9.53-5.2-14.712-6.665a44.293,44.293,0,0,0-7.886-1.568,26.14,26.14,0,0,0-7.939.392c-5.222,1.241-10.453,2.665-15.646,4.12s-10.351,3.088-15.475,4.8c2.547-.9,5.068-1.876,7.609-2.8,2.549-.9,5.075-1.883,7.615-2.83l7.606-2.937c1.271-.488,2.545-.967,3.829-1.414l1.925-.677c.637-.224,1.273-.449,2.01-.668a21,21,0,0,1,8.77-.789,31.752,31.752,0,0,1,4.2.963c1.366.4,2.692.847,3.992,1.367a35.363,35.363,0,0,1,7.362,4.147c1.132.763,2.231,1.549,3.331,2.338S2463.565,759.311,2464.734,760.027Z" transform="translate(-2403.076 -748.815)"/></g><g transform="translate(0 0)"><path d="M2365.6,748.9c1.784-3.14,3.222-6.517,5.667-9.284a11.974,11.974,0,0,1,4.59-3c1.687-.71,3.416-1.259,5.092-1.913a103.51,103.51,0,0,1,10.479-3.027c3.523-.87,7.06-1.671,10.606-2.433,3.563-.7,7.1-1.427,10.73-1.937a12.637,12.637,0,0,1,2.838-.077,8.8,8.8,0,0,1,2.771.78,37.914,37.914,0,0,1,4.728,2.827,80.074,80.074,0,0,1,16.152,14.537c-2.817-2.34-5.666-4.559-8.58-6.643-1.466-1.032-2.967-2-4.453-2.97q-2.251-1.425-4.547-2.727-1.152-.642-2.32-1.24a21.689,21.689,0,0,0-2.192-1.031,5.549,5.549,0,0,0-1.851-.385,9.776,9.776,0,0,0-2.121.135l-10.559,1.69-5.346.817-2.669.436-2.676.4c-3.55.573-7.144,1.132-10.546,2.04-1.769.53-3.524.964-5.207,1.528a10.732,10.732,0,0,0-4.54,2.543,24.6,24.6,0,0,0-3.266,4.262C2367.4,745.755,2366.547,747.358,2365.6,748.9Z" transform="translate(-2365.605 -727.188)"/></g></g><g transform="translate(2044.993 442.936)"><g transform="translate(0)"><path d="M2403.182,883.691a45.479,45.479,0,0,1,13.638.173l-.106.587a45.116,45.116,0,0,0-13.511-.591Z" transform="translate(-2403.182 -883.259)"/></g></g><g transform="translate(2059.239 437.869)"><g transform="translate(0)"><path d="M2446.766,873.556c3.063.432,6.123.861,9.2,1.106a49.282,49.282,0,0,0,9.208-.016,46.843,46.843,0,0,0,8.994-1.932,23.282,23.282,0,0,0,4.216-1.826,7.994,7.994,0,0,0,3.292-3.1l.068.03a7.825,7.825,0,0,1-3.2,3.339,23.711,23.711,0,0,1-4.219,2.011,38.791,38.791,0,0,1-9.083,2.121,51.235,51.235,0,0,1-9.328-.013c-3.1-.254-6.167-.69-9.229-1.128Z" transform="translate(-2446.682 -867.786)"/></g></g><g transform="translate(2045.99 428.156)"><g transform="translate(0 0)"><path d="M2460.474,846.236a79.211,79.211,0,0,0-13.616-5.047,74.637,74.637,0,0,0-14.277-2.521c-4.8-.355-9.766-.255-14.26,1.571a33.735,33.735,0,0,0-6.336,3.5,69.079,69.079,0,0,0-5.759,4.437c3.61-3.218,7.465-6.3,11.979-8.216a23.6,23.6,0,0,1,7.1-1.683,45.973,45.973,0,0,1,7.3,0,74.864,74.864,0,0,1,27.865,7.964Z" transform="translate(-2406.225 -838.127)"/></g></g><g transform="translate(2045.99 428.827)"><g transform="translate(0)"><path d="M2456.725,847.7c-4.246-1.395-8.452-2.824-12.736-3.81a68.716,68.716,0,0,0-13.013-1.712,37.978,37.978,0,0,0-12.837,1.7,55.269,55.269,0,0,0-11.914,5.677,37.618,37.618,0,0,1,11.4-7.14,32.5,32.5,0,0,1,6.592-1.8,37.79,37.79,0,0,1,6.824-.424,53.456,53.456,0,0,1,13.347,2.205A64.085,64.085,0,0,1,2456.725,847.7Z" transform="translate(-2406.225 -840.176)"/></g></g><g transform="translate(2080.942 439.46)"><g transform="translate(0 0)"><path d="M2512.956,879.656c1.283-.473,2.555-.881,3.808-1.319s2.487-.893,3.678-1.432a25.927,25.927,0,0,0,3.459-1.807,19.253,19.253,0,0,0,3.118-2.452,9.2,9.2,0,0,1-2.54,3.238,14.748,14.748,0,0,1-3.534,2.165,19.536,19.536,0,0,1-3.923,1.225A18.008,18.008,0,0,1,2512.956,879.656Z" transform="translate(-2512.956 -872.646)"/></g></g><g transform="translate(2064.439 445.989)"><path d="M2462.563,892.663a23.777,23.777,0,0,1,3.539-.029c1.168.052,2.322.163,3.471.244,1.148.1,2.29.178,3.437.243s2.3.078,3.493.093a11.259,11.259,0,0,1-3.464.882,19.368,19.368,0,0,1-3.567.027,28.694,28.694,0,0,1-3.5-.525A27.2,27.2,0,0,1,2462.563,892.663Z" transform="translate(-2462.563 -892.583)"/></g><circle cx="2.86" cy="2.86" r="2.86" transform="translate(2067.022 433.487)"/><ellipse cx="1.469" cy="1.565" rx="1.469" ry="1.565" transform="translate(2067.557 434.423)"/><g transform="translate(1925.234 419.671)"><g transform="translate(4.483 9.569)"><path d="M2104.95,853.529a34.184,34.184,0,0,0-5.336-4.965,36.559,36.559,0,0,0-6.212-3.829,32.293,32.293,0,0,0-6.88-2.445,36.179,36.179,0,0,0-7.256-.85,50.933,50.933,0,0,0-14.407,2.153,100.907,100.907,0,0,0-13.683,4.985l.034.087c4.6-1.544,9.124-3.292,13.783-4.6a59.315,59.315,0,0,1,7.067-1.584,43.248,43.248,0,0,1,7.2-.607,35.589,35.589,0,0,1,7.174.786,31.911,31.911,0,0,1,6.808,2.4,36.218,36.218,0,0,1,6.165,3.774,52.863,52.863,0,0,1,5.427,4.8Z" transform="translate(-2051.177 -841.438)"/></g><g transform="translate(5.759 19.171)"><path d="M2067.055,878.209a27.815,27.815,0,0,1-6.61-2.723,18.805,18.805,0,0,1-2.917-2.069,13.854,13.854,0,0,1-2.39-2.659l-.062.038a15.013,15.013,0,0,0,5.216,4.948,20.1,20.1,0,0,0,6.732,2.609Z" transform="translate(-2055.076 -870.758)"/></g><g transform="translate(19.633 26.761)"><path d="M2100.072,894.2c-.222-.023-.439-.038-.655-.044s-.431-.041-.645-.068c-.434-.009-.852-.112-1.292-.153l-.042.143a2.606,2.606,0,0,0,.627.274,3.326,3.326,0,0,0,1.351.115,2.521,2.521,0,0,0,.664-.172Z" transform="translate(-2097.439 -893.935)"/></g><g transform="translate(38.453 2.014)"><path d="M2173.949,833.742q-4.2-4.425-8.7-8.556c-.74-.7-1.529-1.346-2.309-2.006s-1.532-1.354-2.39-1.923a26.291,26.291,0,0,0-5.428-2.888l-.21.558a25.759,25.759,0,0,1,5.382,2.708c.853.538,1.605,1.224,2.4,1.846s1.585,1.26,2.341,1.941q4.587,4.014,8.89,8.345Z" transform="translate(-2154.908 -818.369)"/></g><g transform="translate(11.158 0)"><path d="M2097.375,813.668a32.455,32.455,0,0,0-6.581-1.311,32.9,32.9,0,0,0-6.718.068,29.765,29.765,0,0,0-6.544,1.5,25.53,25.53,0,0,0-5.969,3.034l.174.268a29.583,29.583,0,0,1,12.421-4.065,34.782,34.782,0,0,1,6.57-.047,37.851,37.851,0,0,1,6.484,1.122Z" transform="translate(-2071.562 -812.218)"/></g><g transform="translate(7.439 6.057)"><path d="M2062.216,830.714l-2.011,1.571.1.142,2.183-1.322Z" transform="translate(-2060.205 -830.714)"/></g><g transform="translate(50.467 19.676)"><path d="M2193.092,872.3a9.052,9.052,0,0,1-.556,1.4,4.409,4.409,0,0,1-.389.646,1.581,1.581,0,0,1-.554.509,1.578,1.578,0,0,0,.7-.366,4.7,4.7,0,0,0,.574-.562,9.6,9.6,0,0,0,.952-1.3Z" transform="translate(-2191.593 -872.301)"/></g><g transform="translate(46.219 14.097)"><path d="M2185.46,860.28q-3.137-2.647-6.5-5.015l-.333.495q3.439,2.206,6.682,4.712Z" transform="translate(-2178.623 -855.265)"/></g><g transform="translate(25.009 24.933)"><path d="M2135.4,888.352l-5.38.638-5.386.56-5.385.565q-2.695.273-5.4.481l.008.14q2.709-.1,5.417-.265c1.8-.113,3.61-.238,5.407-.437,1.8-.177,3.59-.445,5.38-.7s3.576-.541,5.353-.872Z" transform="translate(-2113.857 -888.352)"/></g><g transform="translate(14.335 31.961)"><path d="M2095.607,913.093a31.19,31.19,0,0,1-7.332-.514,20.781,20.781,0,0,1-3.516-1,11.278,11.278,0,0,1-3.124-1.77l-.375.464a11.783,11.783,0,0,0,3.343,1.73,21.114,21.114,0,0,0,3.618.875,31.336,31.336,0,0,0,7.386.229Z" transform="translate(-2081.261 -909.812)"/></g><g transform="translate(7.612 28.271)"><path d="M2063.769,900.357l-2.907-1.813-.128.183,2.692,2.118Z" transform="translate(-2060.734 -898.545)"/></g><g transform="translate(25.508 5.043)"><path d="M2115.379,827.621a7.961,7.961,0,0,0,3.683,5.144l.276-.5a7.7,7.7,0,0,1-3.945-4.643Z" transform="translate(-2115.379 -827.618)"/></g><g transform="translate(24.609 4.027)"><path d="M2112.781,824.515a8.929,8.929,0,0,0-.033,3.031,5.763,5.763,0,0,0,.457,1.473,1.665,1.665,0,0,0,1.144,1.021l.028-.069a4,4,0,0,1-.887-1.1,5.5,5.5,0,0,1-.505-1.375,7.492,7.492,0,0,1-.187-2.981Z" transform="translate(-2112.634 -824.515)"/></g><g transform="translate(22.509 6.413)"><path d="M2106.281,831.8a4.6,4.6,0,0,0,.2,2.234,3.549,3.549,0,0,0,.562,1.009,1.324,1.324,0,0,0,1.006.56l.024-.071c-.295-.246-.537-.45-.788-.7a3.249,3.249,0,0,1-.581-.89,3.861,3.861,0,0,1-.407-2.141Z" transform="translate(-2106.222 -831.801)"/></g><g transform="translate(11.285 9.247)"><path d="M2071.947,840.459a6.03,6.03,0,0,0,1.56,2.06,4.28,4.28,0,0,0,1.136.679,1.5,1.5,0,0,0,1.318-.017l-.019-.072a5.918,5.918,0,0,1-1.192-.212,4.005,4.005,0,0,1-1.1-.568,5.09,5.09,0,0,1-1.693-1.876Z" transform="translate(-2071.947 -840.453)"/></g><g transform="translate(17.217 8.262)"><path d="M2090.063,837.447a4.313,4.313,0,0,0,.494,1.882,3.107,3.107,0,0,0,.619.791,1.066,1.066,0,0,0,.95.32l.01-.074c-.284-.179-.505-.319-.755-.491a2.812,2.812,0,0,1-.619-.672,3.482,3.482,0,0,1-.685-1.757Z" transform="translate(-2090.063 -837.447)"/></g><g transform="translate(28.796 5.795)"><path d="M2125.756,829.913a4.318,4.318,0,0,0-.329,1.918,3.111,3.111,0,0,0,.236.976,1.066,1.066,0,0,0,.733.685l.04-.063c-.184-.281-.328-.5-.484-.759a2.8,2.8,0,0,1-.286-.868,3.481,3.481,0,0,1,.1-1.883Z" transform="translate(-2125.421 -829.913)"/></g><g transform="translate(31.009 6.272)"><path d="M2132.3,831.371a3.251,3.251,0,0,0-.05,1.591,2.546,2.546,0,0,0,.325.76.845.845,0,0,0,.7.444l.032-.067a6.1,6.1,0,0,0-.469-.563,2.237,2.237,0,0,1-.355-.643,2.541,2.541,0,0,1-.165-1.518Z" transform="translate(-2132.177 -831.371)"/></g><g transform="translate(38.986 6.983)"><path d="M2157.152,833.541a3.239,3.239,0,0,0-.6,1.474,2.519,2.519,0,0,0,.041.827.843.843,0,0,0,.5.659l.053-.052a6.077,6.077,0,0,0-.244-.691,2.252,2.252,0,0,1-.109-.727,2.54,2.54,0,0,1,.372-1.481Z" transform="translate(-2156.535 -833.541)"/></g><g transform="translate(5.077 9.734)"><path d="M2052.995,841.941a4.711,4.711,0,0,0,.352,1.791,6.38,6.38,0,0,0,.908,1.605,5.752,5.752,0,0,0,1.373,1.253,3.024,3.024,0,0,0,1.767.546l.011-.073a14.8,14.8,0,0,1-1.61-.744,5.48,5.48,0,0,1-1.356-1.134,5.2,5.2,0,0,1-1.43-3.243Z" transform="translate(-2052.993 -841.941)"/></g><g transform="translate(0.743 12.298)"><path d="M2039.758,849.778a4.71,4.71,0,0,0,1.078,1.473,6.376,6.376,0,0,0,1.5,1.069,5.757,5.757,0,0,0,1.775.553,3.022,3.022,0,0,0,1.832-.255l-.021-.072a14.7,14.7,0,0,1-1.774.009,5.464,5.464,0,0,1-1.709-.453,5.192,5.192,0,0,1-2.67-2.331Z" transform="translate(-2039.758 -849.772)"/></g><g transform="translate(7.276 11.579)"><path d="M2059.708,847.587a7,7,0,0,0,2.326,1.462,4.768,4.768,0,0,0,1.373.287,1.551,1.551,0,0,0,1.314-.471l-.043-.06a4.776,4.776,0,0,1-1.265.212,4.489,4.489,0,0,1-1.3-.2,5.908,5.908,0,0,1-2.391-1.244Z" transform="translate(-2059.708 -847.576)"/></g><g transform="translate(0 15.024)"><path d="M2037.489,858.107a7.005,7.005,0,0,0,2.465,1.211,4.773,4.773,0,0,0,1.4.143,1.552,1.552,0,0,0,1.258-.606l-.05-.055a4.766,4.766,0,0,1-1.235.343,4.484,4.484,0,0,1-1.317-.059,5.908,5.908,0,0,1-2.507-.988Z" transform="translate(-2037.489 -858.096)"/></g><g transform="translate(13.974 8.66)"><path d="M2080.161,838.665a7.906,7.906,0,0,0,1.031,2.366,5.018,5.018,0,0,0,.866.992,1.357,1.357,0,0,0,1.255.382l0-.074a3.971,3.971,0,0,1-1.051-.557,4.709,4.709,0,0,1-.871-.883,6.424,6.424,0,0,1-1.212-2.23Z" transform="translate(-2080.161 -838.661)"/></g><g transform="translate(16.523 5.399)"><path d="M2087.944,828.708a7.11,7.11,0,0,0,.822,1.738,11.132,11.132,0,0,0,1.164,1.543,8.764,8.764,0,0,0,1.456,1.292,2.133,2.133,0,0,0,1.874.449l-.016-.073a3.952,3.952,0,0,1-1.682-.644,8.479,8.479,0,0,1-1.457-1.19,8.27,8.27,0,0,1-2.145-3.12Z" transform="translate(-2087.944 -828.704)"/></g><g transform="translate(22.857 4.665)"><path d="M2107.283,826.473a12.241,12.241,0,0,0,.938,3.088,7.176,7.176,0,0,0,1.908,2.693l.346-.486a6.766,6.766,0,0,1-1.966-2.352,12.054,12.054,0,0,1-1.178-2.951Z" transform="translate(-2107.283 -826.464)"/></g><g transform="translate(22.322 27.09)"><path d="M2105.755,898.755a3.762,3.762,0,0,1,.3-2,7.567,7.567,0,0,1,1.18-1.666l-.158-.145a3.147,3.147,0,0,0-.7.785,5,5,0,0,0-.493.95,3.566,3.566,0,0,0-.144,2.082Z" transform="translate(-2105.649 -894.94)"/></g><g transform="translate(21.418 27.032)"><path d="M2102.906,898.16a4.612,4.612,0,0,1,.56-1.943,3.293,3.293,0,0,1,.57-.813,2.906,2.906,0,0,1,.8-.562l-.011-.074a1.167,1.167,0,0,0-.968.463,3.519,3.519,0,0,0-.562.9,5.175,5.175,0,0,0-.4,2.027Z" transform="translate(-2102.891 -894.763)"/></g><g transform="translate(17.392 26.459)"><path d="M2090.631,895.48a2.548,2.548,0,0,1,.409-1.443,2.171,2.171,0,0,1,.493-.555,4.243,4.243,0,0,1,.63-.4l-.017-.072a1.142,1.142,0,0,0-.74.317,2.325,2.325,0,0,0-.486.637,2.545,2.545,0,0,0-.3,1.515Z" transform="translate(-2090.596 -893.013)"/></g><g transform="translate(7.376 24.019)"><path d="M2060.022,886.752a3.828,3.828,0,0,1,2.025-.97,3.284,3.284,0,0,1,1.119,0,4.036,4.036,0,0,1,1.059.361l.044-.06a1.858,1.858,0,0,0-1.071-.5,3.446,3.446,0,0,0-1.177.057,3.826,3.826,0,0,0-2.011,1.1Z" transform="translate(-2060.011 -885.562)"/></g><g transform="translate(5.74 22.205)"><path d="M2055.022,880.323a3.831,3.831,0,0,1,2.244-.083,3.289,3.289,0,0,1,1.026.447,4.034,4.034,0,0,1,.827.753l.064-.037a1.861,1.861,0,0,0-.784-.882,3.44,3.44,0,0,0-1.1-.417,3.826,3.826,0,0,0-2.282.2Z" transform="translate(-2055.016 -880.022)"/></g><g transform="translate(18.497 26.762)"><path d="M2094.035,897.395a4.607,4.607,0,0,1,1.309-3.278l-.2-.179a4.763,4.763,0,0,0-1.163,3.461Z" transform="translate(-2093.971 -893.937)"/></g><g transform="translate(13.415 25.862)"><path d="M2078.488,893.658a2.545,2.545,0,0,1,.409-1.443,2.17,2.17,0,0,1,.493-.555,4.209,4.209,0,0,1,.631-.4l-.017-.073a1.146,1.146,0,0,0-.74.317,2.353,2.353,0,0,0-.486.637,2.549,2.549,0,0,0-.3,1.515Z" transform="translate(-2078.453 -891.191)"/></g><g transform="translate(13.955 25.99)"><path d="M2080.166,895.039a4.6,4.6,0,0,1,1.309-3.278l-.2-.18a4.761,4.761,0,0,0-1.163,3.461Z" transform="translate(-2080.102 -891.581)"/></g><g transform="translate(16.191 7.249)"><path d="M2086.93,834.355a7.089,7.089,0,0,0,5.42,4.145l.062-.593a6.788,6.788,0,0,1-5.476-3.554Z" transform="translate(-2086.93 -834.352)"/></g><g transform="translate(12.112 7.206)"><path d="M2081.791,838.407a13.956,13.956,0,0,1-4.151-1.278,9.186,9.186,0,0,1-1.807-1.193,5.29,5.29,0,0,1-1.36-1.714,6.342,6.342,0,0,0,1.167,1.909,6.866,6.866,0,0,0,1.78,1.409,12.687,12.687,0,0,0,4.308,1.366Z" transform="translate(-2074.474 -834.222)"/></g><g transform="translate(6.65 8.509)"><path d="M2066.938,842.12a2.206,2.206,0,0,0-.666-.015c-.221.012-.444.012-.668.01-.448-.006-.9-.031-1.355-.058a8.877,8.877,0,0,1-2.642-.312,6.085,6.085,0,0,1-2.282-1.337,5.82,5.82,0,0,1-1.529-2.205,5.26,5.26,0,0,0,1.362,2.375,6.415,6.415,0,0,0,2.31,1.558,8.227,8.227,0,0,0,2.755.4c.457.023.915.044,1.377.045.231,0,.463,0,.7-.017a2.638,2.638,0,0,1,.72.006Z" transform="translate(-2057.796 -838.202)"/></g><g transform="translate(6.238 12.304)"><path d="M2061.882,851.329a3.793,3.793,0,0,1-1.376-.271l-1.319-.431-1.315-.443-.656-.223c-.227-.053-.42-.2-.678-.166.177.192.413.218.619.328l.64.272c.428.178.851.37,1.283.535l1.291.51a4.1,4.1,0,0,0,1.342.368Z" transform="translate(-2056.537 -849.79)"/></g><g transform="translate(3.631 13.631)"><path d="M2053.6,855.08a3.636,3.636,0,0,1-1.25.035,10.088,10.088,0,0,1-1.312-.229,10.27,10.27,0,0,1-1.281-.4,4.46,4.46,0,0,1-1.181-.642,3.873,3.873,0,0,0,1.088.843,7.445,7.445,0,0,0,1.265.56,8.068,8.068,0,0,0,1.347.344,2.259,2.259,0,0,0,1.4-.181Z" transform="translate(-2048.576 -853.841)"/></g><g transform="translate(44.428 10.241)"><path d="M2173.863,843.491a1.448,1.448,0,0,0-.408.452,2.5,2.5,0,0,0-.222.574,2.561,2.561,0,0,0-.079.619.641.641,0,0,0,.264.574l.238-.1a2.139,2.139,0,0,1,.238-2.091Z" transform="translate(-2173.154 -843.491)"/></g><g transform="translate(41.203 8.337)"><path d="M2163.36,837.676a3.518,3.518,0,0,0,.09,1.613,3.758,3.758,0,0,0,.785,1.451l.238-.229a3.52,3.52,0,0,1-.852-1.279,3.776,3.776,0,0,1-.245-1.553Z" transform="translate(-2163.304 -837.676)"/></g><g transform="translate(36.853 6.365)"><path d="M2151.765,835.347c-.35-.6-.706-1.179-1.021-1.784a6.842,6.842,0,0,1-.722-1.908,6.947,6.947,0,0,0,.494,2.01c.243.649.532,1.281.8,1.907Z" transform="translate(-2150.021 -831.655)"/></g><g transform="translate(34.306 4.411)"><path d="M2142.359,825.687a6.632,6.632,0,0,0,.137,2.985,8.5,8.5,0,0,0,1.247,2.782l.468-.37a8.055,8.055,0,0,1-1.415-2.5,6.468,6.468,0,0,1-.407-2.888Z" transform="translate(-2142.245 -825.687)"/></g><g transform="translate(31.779 4.713)"><path d="M2134.659,826.611a4.951,4.951,0,0,0,.236,2.981,5.262,5.262,0,0,0,1.889,2.442l.328-.535a5,5,0,0,1-2.435-4.885Z" transform="translate(-2134.528 -826.611)"/></g><g transform="translate(30.081 7.88)"><path d="M2129.342,836.281l1.136,2.2.472-.318Z" transform="translate(-2129.342 -836.281)"/></g><g transform="translate(18.303 3.26)"><path d="M2093.378,822.172a14.508,14.508,0,0,0,1.907,5.114,6.04,6.04,0,0,0,2.079,1.861,4.319,4.319,0,0,0,2.806.494l-.122-.584a3.8,3.8,0,0,1-2.484-.311,5.671,5.671,0,0,1-2.039-1.638A14.382,14.382,0,0,1,2093.378,822.172Z" transform="translate(-2093.378 -822.172)"/></g><g transform="translate(25.76 27.32)"><path d="M2116.369,899.188a3.9,3.9,0,0,1-.017-1.9,2.9,2.9,0,0,1,.347-.872l.267-.376c.1-.119.217-.214.333-.334l-.035-.066a1.3,1.3,0,0,0-.753.667,3.079,3.079,0,0,0-.307.951,3.958,3.958,0,0,0,.151,1.934Z" transform="translate(-2116.15 -895.641)"/></g><g transform="translate(10.128 25.013)"><path d="M2068.427,890.3a3.909,3.909,0,0,1,1.48-1.189,2.9,2.9,0,0,1,.9-.267l.461-.024c.155.005.3.038.469.055l.03-.068a1.3,1.3,0,0,0-.991-.178,3.08,3.08,0,0,0-.936.348,3.962,3.962,0,0,0-1.425,1.316Z" transform="translate(-2068.415 -888.596)"/></g><g transform="translate(33.299 26.459)"><path d="M2139.205,895.48a2.544,2.544,0,0,1,.409-1.443,2.179,2.179,0,0,1,.493-.555,4.271,4.271,0,0,1,.631-.4l-.017-.072a1.141,1.141,0,0,0-.74.317,2.34,2.34,0,0,0-.486.637,2.544,2.544,0,0,0-.3,1.515Z" transform="translate(-2139.17 -893.013)"/></g><g transform="translate(30.682 26.651)"><path d="M2131.711,896.975a3.583,3.583,0,0,1-.39-1.715,2.6,2.6,0,0,1,.152-.855,2.666,2.666,0,0,1,.425-.748l-.046-.058a1.217,1.217,0,0,0-.565.742,2.751,2.751,0,0,0-.1.92,3.538,3.538,0,0,0,.516,1.721Z" transform="translate(-2131.179 -893.599)"/></g><g transform="translate(27.664 27.072)"><path d="M2121.977,897.036a2.54,2.54,0,0,1,.673-1.34,2.173,2.173,0,0,1,.588-.453,4.277,4.277,0,0,1,.694-.271l0-.074a1.142,1.142,0,0,0-.787.172,2.346,2.346,0,0,0-.6.534,2.546,2.546,0,0,0-.583,1.431Z" transform="translate(-2121.962 -894.884)"/></g><g transform="translate(12.103 25.575)"><path d="M2074.463,892.974a3.054,3.054,0,0,1,.582-1.6,2.488,2.488,0,0,1,.6-.6,3.46,3.46,0,0,1,.75-.385l-.01-.074a1.278,1.278,0,0,0-.857.3,2.656,2.656,0,0,0-.595.68,3.042,3.042,0,0,0-.481,1.68Z" transform="translate(-2074.446 -890.313)"/></g><g transform="translate(15.137 26.621)"><path d="M2083.725,895.659a2.546,2.546,0,0,1,.673-1.34,2.174,2.174,0,0,1,.589-.453,4.221,4.221,0,0,1,.694-.271l0-.074a1.146,1.146,0,0,0-.787.172,2.339,2.339,0,0,0-.6.533,2.544,2.544,0,0,0-.583,1.431Z" transform="translate(-2083.71 -893.508)"/></g><g transform="translate(15.756 26.582)"><path d="M2085.617,895.7a3.78,3.78,0,0,1,.425-1.305,2.4,2.4,0,0,1,.392-.547,1.713,1.713,0,0,1,.528-.382l-.007-.074a.793.793,0,0,0-.667.322,2.568,2.568,0,0,0-.371.619,3.663,3.663,0,0,0-.315,1.367Z" transform="translate(-2085.602 -893.389)"/></g><g transform="translate(27.217 12.132)"><path d="M2121.74,850.488a3.979,3.979,0,0,1,2.9-1.224,4.1,4.1,0,0,1,2.9,1.217,4.042,4.042,0,0,1,1.16,2.918,3.879,3.879,0,0,1-1.3,2.788,4.068,4.068,0,0,1-2.766,1.031,4.229,4.229,0,0,1-2.736-1.06,3.825,3.825,0,0,1-1.3-2.759A4.074,4.074,0,0,1,2121.74,850.488Zm.869,5a2.473,2.473,0,0,0,2.028,1,2.559,2.559,0,0,0,2-1.034,3.211,3.211,0,0,0,.625-2.055,3.041,3.041,0,0,0-.761-1.925,2.474,2.474,0,0,0-1.86-.848,2.589,2.589,0,0,0-1.867.841,2.99,2.99,0,0,0-.781,1.931A3.271,3.271,0,0,0,2122.609,855.483Z" transform="translate(-2120.599 -849.264)"/></g><g transform="translate(20.719 10.402)"><path d="M2102.38,846.02h1l.258.212a8.029,8.029,0,0,0-.772,9.316,9.461,9.461,0,0,0,3.721,3.479,10.5,10.5,0,0,0,4.32,1.1v.162a10.7,10.7,0,0,1-8.6-4.389,8.656,8.656,0,0,1-1.552-5.236A8.744,8.744,0,0,1,2102.38,846.02Z" transform="translate(-2100.757 -845.353)"/><path d="M2139,859.234a9.936,9.936,0,0,0,1.54-.441,9.453,9.453,0,0,0,4.895-4.971,9.2,9.2,0,0,0,.391-1.211,8.675,8.675,0,0,0,.17-1.254,7.73,7.73,0,0,0-.225-2.484,10.431,10.431,0,0,0-2.185-3.951l1.5.033a8.228,8.228,0,0,1,1.23,1.694,8.352,8.352,0,0,1,.958,2.542,7.162,7.162,0,0,1,.147,1.379,8.707,8.707,0,0,1-.147,1.371,9.467,9.467,0,0,1-.344,1.332,9.809,9.809,0,0,1-.572,1.248,8.749,8.749,0,0,1-1.682,2.134,9.746,9.746,0,0,1-2.184,1.571,10.418,10.418,0,0,1-1.875.784c-.19.08-.381.157-.571.233-.326.1-.656.2-.987.282l-.01-.128-.048.009Z" transform="translate(-2126.474 -844.614)"/><path d="M2139.252,858.6a7.443,7.443,0,0,0,1.313-.451,9.057,9.057,0,0,0,4.169-5.076,10.746,10.746,0,0,0,.333-1.236,10.51,10.51,0,0,0,.145-1.281,9.391,9.391,0,0,0-.192-2.536,11.408,11.408,0,0,0-1.861-4.035l1.277.034a8.5,8.5,0,0,1,1.048,1.73,9.613,9.613,0,0,1,.816,2.6,8.749,8.749,0,0,1,.125,1.408,10.646,10.646,0,0,1-.125,1.4,11.231,11.231,0,0,1-.294,1.36,11.057,11.057,0,0,1-.487,1.274,8.889,8.889,0,0,1-1.433,2.179,8.554,8.554,0,0,1-1.861,1.6,8.13,8.13,0,0,1-1.6.8c-.162.081-.324.16-.487.238-.277.105-.558.2-.84.288l-.009-.131-.041.01Z" transform="translate(-2126.645 -843.982)"/><path d="M2104.612,846.02h1.43a8.047,8.047,0,0,0-1.348,8.843,9.468,9.468,0,0,0,3.357,3.831,10.507,10.507,0,0,0,4.19,1.528l-.016.161a10.705,10.705,0,0,1-8.118-5.221,8.44,8.44,0,0,1,.505-9.142Z" transform="translate(-2102.268 -845.353)"/></g><g transform="translate(22.098 9.887)"><path d="M2122.59,843.745a3.091,3.091,0,0,1-.509-.309c-.164-.151-.344-.2-.49-.477-.143-.3-.341-.26-.525-.3a5.1,5.1,0,0,0-.562-.066c-.759-.023-1.518.03-2.265-.039-1.5-.12-3-.139-4.5-.144a37.752,37.752,0,0,0-4.49.283q-1.113.166-2.217.377a2.724,2.724,0,0,0-2.067,1.073l.242,1.136a7.659,7.659,0,0,1,2.085-.658q1.067-.218,2.144-.395a41.982,41.982,0,0,1,4.34-.484,43.2,43.2,0,0,1,4.374-.035c.729.036,1.463.042,2.189.136l.544.068a.894.894,0,0,1,.53.162,2.838,2.838,0,0,0,1.054.313Z" transform="translate(-2104.967 -842.41)"/></g></g><g transform="translate(1919.746 391.825)"><g transform="translate(0 7.083)"><path d="M2020.733,760.027c5.056-1.915,9.53-5.2,14.712-6.665a44.3,44.3,0,0,1,7.886-1.568,26.141,26.141,0,0,1,7.939.392c5.221,1.241,10.452,2.665,15.646,4.12s10.351,3.088,15.475,4.8c-2.547-.9-5.068-1.876-7.61-2.8-2.548-.9-5.075-1.883-7.615-2.83l-7.606-2.937c-1.271-.488-2.545-.967-3.829-1.414l-1.925-.677c-.637-.224-1.273-.449-2.01-.668a20.994,20.994,0,0,0-8.77-.789,31.752,31.752,0,0,0-4.2.963c-1.365.4-2.692.847-3.992,1.367a35.352,35.352,0,0,0-7.362,4.147c-1.132.763-2.231,1.549-3.331,2.338S2021.9,759.311,2020.733,760.027Z" transform="translate(-2020.733 -748.815)"/></g><g transform="translate(0.276 0)"><path d="M2095.228,748.9c-1.783-3.14-3.221-6.517-5.666-9.284a11.973,11.973,0,0,0-4.59-3c-1.686-.71-3.417-1.259-5.092-1.913a103.506,103.506,0,0,0-10.479-3.027c-3.523-.87-7.06-1.671-10.606-2.433-3.564-.7-7.1-1.427-10.73-1.937a12.638,12.638,0,0,0-2.838-.077,8.8,8.8,0,0,0-2.771.78,37.92,37.92,0,0,0-4.728,2.827,80.1,80.1,0,0,0-16.152,14.537c2.817-2.34,5.666-4.559,8.579-6.643,1.466-1.032,2.967-2,4.454-2.97q2.251-1.425,4.547-2.727,1.152-.642,2.321-1.24a21.689,21.689,0,0,1,2.192-1.031,5.547,5.547,0,0,1,1.851-.385,9.776,9.776,0,0,1,2.121.135l10.559,1.69,5.347.817,2.668.436,2.676.4c3.55.573,7.144,1.132,10.546,2.04,1.769.53,3.524.964,5.208,1.528a10.729,10.729,0,0,1,4.539,2.543,24.567,24.567,0,0,1,3.266,4.262C2093.434,745.755,2094.286,747.358,2095.228,748.9Z" transform="translate(-2021.575 -727.188)"/></g></g><g transform="translate(1967.731 442.936)"><path d="M2180.9,883.691a45.481,45.481,0,0,0-13.638.173l.106.587a45.117,45.117,0,0,1,13.511-.591Z" transform="translate(-2167.258 -883.259)"/></g><g transform="translate(1932.067 437.869)"><g transform="translate(0)"><path d="M2093.328,873.556c-3.063.432-6.123.861-9.2,1.106a49.285,49.285,0,0,1-9.208-.016,46.864,46.864,0,0,1-8.994-1.932,23.3,23.3,0,0,1-4.216-1.826,8,8,0,0,1-3.291-3.1l-.068.03a7.828,7.828,0,0,0,3.2,3.339,23.668,23.668,0,0,0,4.219,2.011,38.787,38.787,0,0,0,9.083,2.121,51.227,51.227,0,0,0,9.327-.013c3.1-.254,6.168-.69,9.23-1.128Z" transform="translate(-2058.355 -867.786)"/></g></g><g transform="translate(1926.124 428.156)"><g transform="translate(0 0)"><path d="M2040.207,846.236a79.194,79.194,0,0,1,13.616-5.047,74.641,74.641,0,0,1,14.277-2.521c4.8-.355,9.766-.255,14.261,1.571a33.733,33.733,0,0,1,6.336,3.5,69.12,69.12,0,0,1,5.759,4.437c-3.61-3.218-7.465-6.3-11.979-8.216a23.6,23.6,0,0,0-7.1-1.683,45.979,45.979,0,0,0-7.3,0,74.861,74.861,0,0,0-27.865,7.964Z" transform="translate(-2040.207 -838.127)"/></g></g><g transform="translate(1929.872 428.827)"><g transform="translate(0)"><path d="M2051.654,847.7c4.246-1.395,8.452-2.824,12.737-3.81a68.716,68.716,0,0,1,13.012-1.712,37.977,37.977,0,0,1,12.837,1.7,55.263,55.263,0,0,1,11.914,5.677,37.618,37.618,0,0,0-11.4-7.14,32.5,32.5,0,0,0-6.592-1.8,37.79,37.79,0,0,0-6.824-.424,53.452,53.452,0,0,0-13.347,2.205A64.1,64.1,0,0,0,2051.654,847.7Z" transform="translate(-2051.654 -840.176)"/></g></g><g transform="translate(1931.357 439.46)"><g transform="translate(0 0)"><path d="M2070.25,879.656c-1.283-.473-2.556-.881-3.808-1.319s-2.486-.893-3.677-1.432a25.915,25.915,0,0,1-3.459-1.807,19.251,19.251,0,0,1-3.118-2.452,9.188,9.188,0,0,0,2.54,3.238,14.744,14.744,0,0,0,3.534,2.165,19.526,19.526,0,0,0,3.923,1.225A18,18,0,0,0,2070.25,879.656Z" transform="translate(-2056.188 -872.646)"/></g></g><g transform="translate(1947.982 445.989)"><g transform="translate(0)"><path d="M2120.894,892.663a23.77,23.77,0,0,0-3.538-.029c-1.168.052-2.322.163-3.471.244-1.147.1-2.29.178-3.437.243s-2.3.078-3.493.093a11.259,11.259,0,0,0,3.464.882,19.371,19.371,0,0,0,3.567.027,28.708,28.708,0,0,0,3.5-.525A27.17,27.17,0,0,0,2120.894,892.663Z" transform="translate(-2106.954 -892.583)"/></g></g><circle cx="2.86" cy="2.86" r="2.86" transform="translate(1953.619 433.487)"/><ellipse cx="1.469" cy="1.565" rx="1.469" ry="1.565" transform="translate(1955.866 434.423)"/><g transform="translate(1882.337 435.934)"><g transform="translate(0 0)"><path d="M1921.558,880.607a32.363,32.363,0,0,1-5.013-3.5,43.507,43.507,0,0,1-8.074-9.3,27.014,27.014,0,0,1-1.434-2.733,5.54,5.54,0,0,1-.466-3.188,5.137,5.137,0,0,1,1.337,1.023,6.727,6.727,0,0,1,.94,1.2c.524.849,1.055,1.689,1.547,2.55,1,1.709,1.951,3.458,3.092,5.089a43.432,43.432,0,0,0,3.718,4.68A46.171,46.171,0,0,0,1921.558,880.607Z" transform="translate(-1906.501 -861.877)"/></g></g><g transform="translate(1885.022 245.5)"><g transform="translate(103.584 39.432)"><path d="M2231,406.062a30.492,30.492,0,0,0,11.585,1.027,74.505,74.505,0,0,0,11.5-2.111c3.793-.917,7.561-1.977,11.412-2.7,1.935-.307,3.864-.668,5.806-.932l5.862-.488a85.588,85.588,0,0,1,45.144,11.078,84.307,84.307,0,0,1,18.632,14.257l2.055,2.107c.671.715,1.269,1.5,1.907,2.24l1.886,2.26a11.894,11.894,0,0,1,.891,1.17l.85,1.2a79.413,79.413,0,0,1,6.22,9.971c3.715,6.9,6.8,14.089,10.322,21.054a113.056,113.056,0,0,0,5.714,10.211c.522.824,1.051,1.644,1.621,2.436a26.809,26.809,0,0,0,1.736,2.35,8.431,8.431,0,0,0,2.218,1.872,3.357,3.357,0,0,0,2.813.289,3.379,3.379,0,0,1-2.835-.246,8.5,8.5,0,0,1-2.269-1.85,27.076,27.076,0,0,1-1.783-2.331c-.585-.784-1.128-1.6-1.665-2.414a113.331,113.331,0,0,1-5.9-10.14c-3.6-6.944-6.749-14.109-10.513-20.939a82.6,82.6,0,0,0-13.788-18.734,83.637,83.637,0,0,0-18.506-14.072,85.5,85.5,0,0,0-44.729-11.161l-5.823.43c-1.929.244-3.848.585-5.773.872-3.835.684-7.608,1.715-11.418,2.589a74.8,74.8,0,0,1-11.57,1.928A30.589,30.589,0,0,1,2231,406.062Z" transform="translate(-2231.002 -400.785)"/></g><g transform="translate(125.098 42.495)"><path d="M2296.7,417.449a76.039,76.039,0,0,1,26.612-7.1,73.9,73.9,0,0,1,13.892.264,68.807,68.807,0,0,1,13.625,2.909,56.754,56.754,0,0,1,23.688,14.564,60.108,60.108,0,0,1,8.371,11.253,87.6,87.6,0,0,1,5.913,12.651c3.233,8.733,5.365,17.728,7.639,26.619,2.25,8.893,4.65,17.744,8.315,26.076a68.58,68.58,0,0,0,6.656,11.864,133.157,133.157,0,0,0,8.816,10.5,45.457,45.457,0,0,1,7.715,11.52,24.436,24.436,0,0,1,1.861,6.689,21.129,21.129,0,0,1-.445,6.883,20.931,20.931,0,0,0,.088-6.833,24.139,24.139,0,0,0-2.08-6.478,44.618,44.618,0,0,0-8.012-11,130.064,130.064,0,0,1-9.164-10.393,70.27,70.27,0,0,1-7.105-11.985c-4-8.415-6.44-17.4-8.833-26.274-2.343-8.9-4.487-17.83-7.682-26.342a85.194,85.194,0,0,0-5.7-12.332,59.582,59.582,0,0,0-7.993-10.872,52.954,52.954,0,0,0-10.411-8.539,61.655,61.655,0,0,0-12.216-5.837,71.473,71.473,0,0,0-26.866-3.745A78.81,78.81,0,0,0,2296.7,417.449Z" transform="translate(-2296.697 -410.137)"/></g><g transform="translate(221.579 103.512)"><path d="M2591.306,596.458a34.013,34.013,0,0,0,1.465,5.068A40.025,40.025,0,0,0,2595,606.3a78.415,78.415,0,0,0,5.758,8.828c2.084,2.837,4.212,5.657,6.2,8.583s3.866,5.925,5.614,9a125.932,125.932,0,0,1,8.8,19.284q1.765,5,3.117,10.129c.218.855.455,1.7.617,2.583a7.352,7.352,0,0,1,.08,2.674,3.581,3.581,0,0,1-1.349,2.271,2.509,2.509,0,0,1-2.508.443,2.45,2.45,0,0,0,2.434-.537,3.42,3.42,0,0,0,1.216-2.212c.241-1.732-.387-3.437-.865-5.119q-1.457-5.077-3.316-10.023a132.458,132.458,0,0,0-8.912-19.1q-2.576-4.6-5.521-8.986c-1.948-2.927-4.085-5.731-6.1-8.634a77.826,77.826,0,0,1-5.606-9,40.207,40.207,0,0,1-2.086-4.88A30.465,30.465,0,0,1,2591.306,596.458Z" transform="translate(-2591.306 -596.458)"/></g><g transform="translate(231.015 142.82)"><path d="M2620.122,716.487a44.692,44.692,0,0,0,5.26,9.119c2.035,2.871,4.145,5.719,6.118,8.684a64.461,64.461,0,0,1,5.216,9.351,40.374,40.374,0,0,1,3.088,10.225,73.033,73.033,0,0,0-4.2-9.685,102.4,102.4,0,0,0-5.426-9.015c-1.923-2.948-3.976-5.833-5.826-8.883A30.269,30.269,0,0,1,2620.122,716.487Z" transform="translate(-2620.122 -716.487)"/></g><g transform="translate(6.277 45.234)"><path d="M1933.867,512.4a116.386,116.386,0,0,1,3.9-14.108l1.284-3.44,1.372-3.433,1.449-3.362,1.581-3.315a122.238,122.238,0,0,1,7.227-12.823c1.361-2.046,2.765-4.067,4.148-6.1l4.493-5.863a133.212,133.212,0,0,1,9.946-10.867,144.841,144.841,0,0,1,11.06-9.69c3.775-3.051,7.567-6.037,11-9.419a42.847,42.847,0,0,0,8.7-11.476,37.631,37.631,0,0,1-7.565,12.552,112.56,112.56,0,0,1-10.533,10.246c-3.623,3.208-7.178,6.459-10.528,9.922a140.5,140.5,0,0,0-9.62,10.757l-4.438,5.671-4.135,5.906c-2.752,3.979-5.2,8.11-7.547,12.318l-1.724,3.187-1.631,3.249-1.568,3.242-1.512,3.3C1937.244,503.284,1935.526,507.815,1933.867,512.4Z" transform="translate(-1933.867 -418.502)"/></g><g transform="translate(24.503 79.05)"><path d="M1989.523,550.075c.773-1.56,1.644-3.075,2.516-4.6l1.454-2.18c.5-.715,1.027-1.408,1.54-2.114,1.054-1.418,2.2-2.728,3.363-4.043,1.18-1.3,2.4-2.526,3.656-3.769a68.457,68.457,0,0,1,8.172-6.585,48.752,48.752,0,0,1,9.182-5.025c-2.744,2.162-5.428,4.3-8.059,6.51s-5.152,4.516-7.655,6.831c-1.235,1.159-2.46,2.379-3.662,3.589-1.224,1.194-2.393,2.454-3.571,3.678l-3.49,3.809C1991.853,547.486,1990.737,548.8,1989.523,550.075Z" transform="translate(-1989.523 -521.761)"/></g><g transform="translate(23.656 108.587)"><path d="M1997.7,611.952a70.1,70.1,0,0,0-5.788,5.886,70.855,70.855,0,0,0-4.981,6.583,26.2,26.2,0,0,1,10.77-12.469Z" transform="translate(-1986.935 -611.952)"/></g><g transform="translate(82.051 20.717)"><path d="M2165.249,365.365a74.088,74.088,0,0,1,18.018-14.977,44.972,44.972,0,0,1,16.705-6.147,57.075,57.075,0,0,1,5.943-.583,63.984,63.984,0,0,1,11.854.811,77.882,77.882,0,0,1,11.475,2.82c3.741,1.2,7.381,2.649,10.971,4.2,3.539,1.657,7.073,3.309,10.559,5.055-3.7-1.26-7.343-2.618-10.988-3.965-3.664-1.28-7.356-2.473-11.076-3.5a89.375,89.375,0,0,0-11.28-2.37,64.356,64.356,0,0,0-11.426-.662,54.853,54.853,0,0,0-5.68.5,52.667,52.667,0,0,0-5.574,1.169A50.38,50.38,0,0,0,2184.183,352,98.36,98.36,0,0,0,2165.249,365.365Z" transform="translate(-2165.249 -343.637)"/></g><g transform="translate(2.006 141.952)"><path d="M1923.952,713.837c-.432,2.493-.854,4.979-1.2,7.474s-.634,4.995-.843,7.5c-.227,2.506-.363,5.018-.467,7.534-.049,1.259-.075,2.518-.087,3.779l-.025,1.893q.011.946,0,1.9c-.165-1.255-.259-2.516-.36-3.779-.067-1.264-.109-2.53-.135-3.8-.041-2.534.075-5.069.286-7.6.23-2.525.554-5.042,1.034-7.531A66.233,66.233,0,0,1,1923.952,713.837Z" transform="translate(-1920.828 -713.837)"/></g><g transform="translate(0.108 73.799)"><path d="M1957.017,505.727l-11.868,14.866c-3.946,4.96-7.9,9.912-11.716,14.97-3.844,5.034-7.683,10.082-11,15.461a55.632,55.632,0,0,0-7.4,17.362,44.308,44.308,0,0,1,2.6-9.151,64.653,64.653,0,0,1,4.273-8.527,173.6,173.6,0,0,1,10.893-15.627q5.812-7.539,11.875-14.872T1957.017,505.727Z" transform="translate(-1915.032 -505.727)"/></g><g transform="translate(0 113.282)"><path d="M1920.061,626.291c-1.006,1.809-2.006,3.559-2.884,5.384-.9,1.815-1.664,3.679-2.475,5.584a18.733,18.733,0,0,1,5.359-10.967Z" transform="translate(-1914.701 -626.291)"/></g><g transform="translate(83.82 34.453)"><path d="M2170.65,401.266a21.269,21.269,0,0,1,2.752-5.624,24.167,24.167,0,0,1,9.458-8.164l1.443-.633,1.476-.542,1.514-.417q.767-.166,1.535-.3-.738.265-1.473.506l-1.438.581-1.408.636-1.365.718A30.347,30.347,0,0,0,2173.9,396,31.148,31.148,0,0,0,2170.65,401.266Z" transform="translate(-2170.65 -385.581)"/></g><g transform="translate(106.919 30.101)"><path d="M2241.185,374.878a26.244,26.244,0,0,1,12.705-2.53c-2.137.462-4.25.818-6.356,1.248C2245.424,374,2243.335,374.484,2241.185,374.878Z" transform="translate(-2241.185 -372.292)"/></g><g transform="translate(79.062 29.504)"><path d="M2156.122,379.177a14.1,14.1,0,0,1,13.53-8.681,19.628,19.628,0,0,0-13.53,8.681Z" transform="translate(-2156.122 -370.468)"/></g><g transform="translate(78.784 26.114)"><path d="M2155.272,364.126a5.372,5.372,0,0,1,5.845-3.944,12.962,12.962,0,0,0-3.216,1.538A12.829,12.829,0,0,0,2155.272,364.126Z" transform="translate(-2155.272 -360.117)"/></g><g transform="translate(78.223 19.638)"><path d="M2153.561,342.19a2.128,2.128,0,0,1,3.222-1.515,10.522,10.522,0,0,0-1.682.607A10.207,10.207,0,0,0,2153.561,342.19Z" transform="translate(-2153.561 -340.341)"/></g><g transform="translate(75.85 4.712)"><path d="M2146.35,298.045a.671.671,0,0,1,.117-.679c.141-.124,2.133-2.712,4.461-2.6a10.553,10.553,0,0,0-3.9,3.16A.671.671,0,0,1,2146.35,298.045Z" transform="translate(-2146.313 -294.765)"/></g><g transform="translate(54.807 38.074)"><path d="M2096.758,396.636a25.215,25.215,0,0,0-14.7,9.44,17.37,17.37,0,0,1,14.7-9.44Z" transform="translate(-2082.058 -396.636)"/></g><g transform="translate(60.008 35.008)"><path d="M2104.273,387.292a22.267,22.267,0,0,0-3.357,1.7,22.616,22.616,0,0,0-2.976,2.3,6.676,6.676,0,0,1,6.333-4.007Z" transform="translate(-2097.94 -387.277)"/></g><g transform="translate(62.315 27.685)"><path d="M2109.706,364.913a8.217,8.217,0,0,1-2.176,1.593,8.124,8.124,0,0,1-2.546.888,8.129,8.129,0,0,1,2.176-1.592A8.225,8.225,0,0,1,2109.706,364.913Z" transform="translate(-2104.984 -364.913)"/></g><g transform="translate(61.606 22.937)"><path d="M2106.715,350.5a1.2,1.2,0,0,1-.612.758,14.108,14.108,0,0,0-3.286,1.5c.4-1.079,2.666-2.068,2.924-2.213A1.2,1.2,0,0,1,2106.715,350.5Z" transform="translate(-2102.818 -350.415)"/></g><g transform="translate(55.712 18.705)"><path d="M2095.08,337.621a14.229,14.229,0,0,0-10.258,6.107,9.507,9.507,0,0,1,10.258-6.107Z" transform="translate(-2084.822 -337.493)"/></g><g transform="translate(60.271 15.849)"><path d="M2102.785,328.917a8.447,8.447,0,0,1-1.959.789,8.283,8.283,0,0,1-2.083.352,4.166,4.166,0,0,1,4.042-1.141Z" transform="translate(-2098.743 -328.771)"/></g><g transform="translate(88.208 43.978)"><path d="M2184.049,422.834a11.837,11.837,0,0,1,3.633-5.63,12.53,12.53,0,0,1,2.833-1.881,10.08,10.08,0,0,1,1.6-.617,1.059,1.059,0,0,1,.921.151c.243.2.327.625.073.807a.458.458,0,0,0-.2-.638.789.789,0,0,0-.679.052c-.467.219-.955.517-1.416.79a19.009,19.009,0,0,0-2.605,1.933A21.383,21.383,0,0,0,2184.049,422.834Z" transform="translate(-2184.049 -414.666)"/></g><g transform="translate(60.47 51.454)"><path d="M2113.677,437.494a29.254,29.254,0,0,1-2.48,4.932,33.609,33.609,0,0,1-7.279,8.3q-1.084.864-2.21,1.664c-.775.5-1.546,1-2.357,1.437q.53-.443,1.072-.863l1.049-.884c.7-.589,1.38-1.191,2.043-1.814,1.321-1.251,2.6-2.543,3.788-3.913s2.318-2.793,3.386-4.265S2112.728,439.068,2113.677,437.494Z" transform="translate(-2099.351 -437.494)"/></g><g transform="translate(48.083 71.424)"><path d="M2061.526,504.408a13.939,13.939,0,0,1,7.269-5.935c-1.219,1.039-2.451,1.963-3.646,2.953C2063.939,502.4,2062.787,503.421,2061.526,504.408Z" transform="translate(-2061.526 -498.473)"/></g><g transform="translate(90.634 48.9)"><path d="M2200.9,430c-.95.344-1.83.613-2.65.974a13.348,13.348,0,0,0-2.3,1.258c-.723.49-1.417,1.052-2.138,1.643a15.911,15.911,0,0,1-2.359,1.693,12.636,12.636,0,0,1,1.452-2.554,8.949,8.949,0,0,1,2.154-2.1,7.061,7.061,0,0,1,2.85-1.14A6.391,6.391,0,0,1,2200.9,430Z" transform="translate(-2191.459 -429.695)"/></g><g transform="translate(71.743 1.292)"><path d="M2133.772,289.3a9.638,9.638,0,0,1,3.086-3.505,10.657,10.657,0,0,1,2.064-1.141,4.178,4.178,0,0,1,1.171-.327,1.654,1.654,0,0,1,1.171.271,2.934,2.934,0,0,0-2.062.61c-.643.4-1.278.794-1.884,1.235A44.078,44.078,0,0,0,2133.772,289.3Z" transform="translate(-2133.772 -284.32)"/></g><g transform="translate(70.203)"><path d="M2129.071,283.934a8.637,8.637,0,0,1,1.189-1.679,6.423,6.423,0,0,1,1.636-1.323,4.471,4.471,0,0,1,2.078-.555,2.9,2.9,0,0,1,1.983.675,4.457,4.457,0,0,0-1.928-.057,5.889,5.889,0,0,0-1.751.634A36.518,36.518,0,0,0,2129.071,283.934Z" transform="translate(-2129.071 -280.376)"/></g><g transform="translate(225.276 104.113)"><path d="M2602.6,598.293a45.369,45.369,0,0,0,6.364,14.142c2.816,4.364,6.029,8.462,9.191,12.611a81.455,81.455,0,0,1,8.385,13.249,40.053,40.053,0,0,1,2.7,7.376,27.912,27.912,0,0,1,.824,7.78,34.569,34.569,0,0,0-4.076-14.886,86.306,86.306,0,0,0-8.471-13.041c-3.1-4.179-6.341-8.292-9.072-12.765a54.011,54.011,0,0,1-3.625-6.961A34.66,34.66,0,0,1,2602.6,598.293Z" transform="translate(-2602.596 -598.293)"/></g><g transform="translate(248.154 137.404)"><path d="M2672.455,699.949a15.127,15.127,0,0,1,5.383,15.1,22.122,22.122,0,0,0-5.383-15.1Z" transform="translate(-2672.455 -699.949)"/></g><g transform="translate(247.506 128.687)"><path d="M2670.478,673.331c1.838.38,4.832,4.9,5.216,5.26a3.026,3.026,0,0,1,.848,1.381c-.6-.14-.738-.58-1.121-.937C2674.28,677.957,2674.47,676.436,2670.478,673.331Z" transform="translate(-2670.478 -673.331)"/></g><g transform="translate(99.809 14.374)"><path d="M2219.474,328.756a60.769,60.769,0,0,1,21.716-4.435,155.295,155.295,0,0,1,22.239,1.249l5.525.622c.927.094,1.855.177,2.78.289l2.762.461a79.49,79.49,0,0,1,10.769,2.976,117.664,117.664,0,0,1,20.116,9.62c3.212,1.878,6.3,3.961,9.359,6.073,3.017,2.174,6,4.394,8.858,6.779a130.575,130.575,0,0,1,16.018,15.5,107.727,107.727,0,0,1,6.885,8.774c1.036,1.545,2.11,3.065,3.046,4.674,1,1.569,1.867,3.216,2.75,4.853a62.77,62.77,0,0,1,4.192,10.321,46.152,46.152,0,0,1,1.862,10.954,46.056,46.056,0,0,0-2.048-10.9,62.451,62.451,0,0,0-4.351-10.2,88.543,88.543,0,0,0-5.861-9.417,107.14,107.14,0,0,0-6.936-8.661c-2.43-2.791-5.048-5.412-7.691-8-2.7-2.529-5.441-5.021-8.325-7.341-2.848-2.365-5.828-4.564-8.836-6.717-3.052-2.092-6.129-4.152-9.327-6.012a116.957,116.957,0,0,0-19.953-9.622,78.721,78.721,0,0,0-10.656-2.982l-2.726-.464c-.915-.115-1.836-.2-2.753-.3l-5.528-.677a155.869,155.869,0,0,0-22.157-1.467A60.577,60.577,0,0,0,2219.474,328.756Z" transform="translate(-2219.474 -324.266)"/></g><g transform="translate(239.613 100.31)"><path d="M2646.4,586.679a28.736,28.736,0,0,0,5.465,11.831,14.526,14.526,0,0,1-5.465-11.831Z" transform="translate(-2646.376 -586.679)"/></g><g transform="translate(236.768 176.887)"><path d="M2637.687,820.512a28.291,28.291,0,0,0,8.4,14.325,17.908,17.908,0,0,1-8.4-14.325Z" transform="translate(-2637.687 -820.512)"/></g><g transform="translate(239.632 178.588)"><path d="M2646.433,825.707a39.956,39.956,0,0,0,2.719,5.364,40.425,40.425,0,0,0,3.564,4.844,14.552,14.552,0,0,1-6.283-10.208Z" transform="translate(-2646.433 -825.707)"/></g><g transform="translate(243.47 179.824)"><path d="M2658.153,829.481a9.984,9.984,0,0,1,1.759,2.4,9.871,9.871,0,0,1,1.062,2.782,11.155,11.155,0,0,1-2.821-5.185Z" transform="translate(-2658.153 -829.481)"/></g><g transform="translate(8.462 168.914)"><path d="M1949.26,796.167a20.473,20.473,0,0,1-8.721,17.195,29.547,29.547,0,0,0,8.721-17.195Z" transform="translate(-1940.539 -796.167)"/></g><g transform="translate(11.419 177.006)"><path d="M1955.412,820.874a19.715,19.715,0,0,1-2.01,6.319,22.2,22.2,0,0,1-1.727,2.848,16.782,16.782,0,0,1-1.043,1.318,1.415,1.415,0,0,1-.382.274.579.579,0,0,1-.507.019.272.272,0,0,1-.171-.236.365.365,0,0,1,.094-.234.421.421,0,0,1,.191-.129.113.113,0,0,1,.148.128c-.044-.184-.2-.031-.239.069-.056.125-.039.2.054.206.2.047.382-.148.516-.349.271-.437.547-.937.817-1.4.533-.95,1.056-1.9,1.541-2.872C1953.689,824.9,1954.529,822.908,1955.412,820.874Z" transform="translate(-1949.571 -820.874)"/></g><g transform="translate(14.187 186.487)"><path d="M1960.687,849.826a11.2,11.2,0,0,1-1.584,2.681.633.633,0,1,1-.558-.567A10.572,10.572,0,0,0,1960.687,849.826Z" transform="translate(-1958.022 -849.826)"/></g><g transform="translate(100.468 46.329)"><path d="M2246.837,421.845a8.771,8.771,0,0,1-2.215,2.607,12.64,12.64,0,0,1-3.018,1.727,17.631,17.631,0,0,1-6.817,1.184,36.377,36.377,0,0,1-6.748-.87c-2.184-.41-4.363-.872-6.55-1.5,2.244-.035,4.5.086,6.743.271,2.215.224,4.411.476,6.58.507a21.838,21.838,0,0,0,6.382-.761,15.616,15.616,0,0,0,2.995-1.2A12.029,12.029,0,0,0,2246.837,421.845Z" transform="translate(-2221.488 -421.845)"/></g><g transform="translate(127.827 49.674)"><path d="M2305.03,432.465a198.959,198.959,0,0,1,31.745.469c2.649.3,5.3.7,7.919,1.266a70.2,70.2,0,0,1,7.794,2.046c1.271.418,2.536.83,3.824,1.372,1.2.5,2.464.989,3.729,1.623l1.816.917.9.456.853.492c1.121.621,2.306,1.379,3.479,2.127,1.117.768,2.255,1.509,3.28,2.362,1.041.82,2.127,1.647,3.134,2.6l1.467,1.326c.489.445.97.959,1.455,1.435s.96.975,1.43,1.467.962.978,1.371,1.493a86.556,86.556,0,0,1,9.346,13.024,121.786,121.786,0,0,1,7.12,14.26,151.564,151.564,0,0,1,5.411,14.916,210.078,210.078,0,0,0-14.641-27.867q-2.15-3.266-4.5-6.374c-1.576-2.078-3.233-4.018-5-5.969-.883-.956-1.776-1.849-2.677-2.745-.46-.443-.881-.894-1.371-1.332l-1.48-1.312c-.92-.856-1.941-1.617-2.979-2.419-1.01-.829-2.1-1.509-3.155-2.232-1.046-.675-2.07-1.359-3.25-2.027l-.856-.5-.858-.441-1.707-.881c-1.088-.559-2.278-1.04-3.51-1.562-1.136-.495-2.381-.907-3.6-1.356a87.776,87.776,0,0,0-15.09-3.708C2326.119,433.778,2315.558,433.255,2305.03,432.465Z" transform="translate(-2305.03 -432.06)"/></g></g><g transform="translate(1892.436 298.485)"><g transform="translate(0 0)"><path d="M1948.107,442.167a21.78,21.78,0,0,0-1.734,2.544c-.592.829-1.132,1.7-1.643,2.583a60.745,60.745,0,0,0-2.754,5.5c-.836,1.876-1.6,3.784-2.32,5.711-.359.963-.712,1.929-1.046,2.9l-1.27,2.831c.21-1.016.458-2.02.707-3.027.335-.977.69-1.947,1.05-2.915.721-1.936,1.492-3.854,2.334-5.744a61.358,61.358,0,0,1,2.782-5.553q.775-1.351,1.67-2.634A16.3,16.3,0,0,1,1948.107,442.167Z" transform="translate(-1937.34 -442.167)"/></g></g><g transform="translate(1901.778 387.995)"><g transform="translate(0)"><path d="M1965.866,770.713a44.037,44.037,0,0,0,1-6.932c.218-2.326.379-4.66.559-6.994.336-4.669.7-9.342,1.161-14.013.486-4.667,1.046-9.338,1.925-13.968a68.509,68.509,0,0,1,1.639-6.882,22.237,22.237,0,0,1,2.908-6.43,25.076,25.076,0,0,0-2.153,6.625c-.487,2.276-.841,4.58-1.169,6.888-.305,2.312-.6,4.627-.841,6.951-.26,2.321-.507,4.646-.727,6.975-.486,4.653-.922,9.319-1.512,13.976-.287,2.329-.617,4.656-1.021,6.975-.215,1.157-.445,2.312-.718,3.459A19.834,19.834,0,0,1,1965.866,770.713Z" transform="translate(-1965.866 -715.494)"/></g></g><g transform="translate(1893.429 430.171)"><path d="M1946.391,862.2c-.5-1.5-.944-3.014-1.407-4.52l-1.392-4.512a80.824,80.824,0,0,0-3.22-8.859l.058-.031a26.922,26.922,0,0,1,2.135,4.241c.611,1.463,1.122,2.963,1.594,4.471A77.753,77.753,0,0,1,1946.391,862.2Z" transform="translate(-1940.372 -844.28)"/></g><g transform="translate(1894.656 364.56)"><g transform="translate(0 0.57)"><path d="M1944.12,666a4.546,4.546,0,0,0,3.792,1.723,6.582,6.582,0,0,0,4.017-1.2,18.456,18.456,0,0,0,3.275-2.9q1.519-1.618,2.951-3.316a78.361,78.361,0,0,0,5.319-7.1c.816-1.234,1.608-2.485,2.352-3.765.833-1.227,1.614-2.49,2.4-3.756-.573,1.376-1.222,2.719-1.887,4.057-.749,1.289-1.547,2.55-2.369,3.794a78.977,78.977,0,0,1-5.359,7.158q-1.442,1.71-2.973,3.342a19.03,19.03,0,0,1-3.385,2.991,8.9,8.9,0,0,1-2.068,1.006,6.49,6.49,0,0,1-2.306.3A4.693,4.693,0,0,1,1944.12,666Z" transform="translate(-1944.12 -645.675)"/></g><g transform="translate(8.856)"><path d="M1971.162,656.036q.442-.33.888-.634l.863-.654c.612-.367,1.207-.762,1.79-1.175a25.669,25.669,0,0,0,5.993-6.068q.609-.881,1.154-1.8l.645-.871q.3-.45.621-.9a21.449,21.449,0,0,1-.75,2.068q-.558.944-1.182,1.846a26.268,26.268,0,0,1-6.133,6.209c-.6.424-1.207.823-1.83,1.206A19.9,19.9,0,0,1,1971.162,656.036Z" transform="translate(-1971.162 -643.934)"/></g><g transform="translate(8.92 16.692)"><path d="M1981.439,694.9l-1.352,2.118c-.513.651-1.008,1.317-1.493,1.99q-1.447,2.024-2.708,4.173t-2.326,4.4q-.528,1.127-1.013,2.272c-.41.728-.786,1.473-1.189,2.213.177-.824.411-1.631.639-2.444q.491-1.158,1.024-2.3,1.075-2.273,2.35-4.445t2.738-4.218c.489-.681.994-1.35,1.506-2.014C1980.212,696.053,1980.8,695.455,1981.439,694.9Z" transform="translate(-1971.357 -694.903)"/></g></g><g transform="translate(2132.52 347.837)"><g transform="translate(5.334 7.899)"><path d="M2686.741,620.879a1.121,1.121,0,0,0,.3-.457,4.012,4.012,0,0,0,.33-.415,8.277,8.277,0,0,0,.552-.946,8.883,8.883,0,0,0,.433-1.014,4.5,4.5,0,0,0,.29-1.06,1.924,1.924,0,0,1-.054,1.135,9.375,9.375,0,0,1-.388,1.07,8.618,8.618,0,0,1-.522,1.019,3.877,3.877,0,0,1-.343.48A1,1,0,0,1,2686.741,620.879Z" transform="translate(-2686.741 -616.986)"/></g><g transform="translate(0)"><path d="M2670.452,604.1q.3-.3.608-.589l.579-.609c.415-.369.81-.759,1.19-1.164a16.639,16.639,0,0,0,3.418-5.667q.272-.788.477-1.595l.268-.8.235-.813a14.935,14.935,0,0,1-.117,1.7q-.209.828-.488,1.634a17.01,17.01,0,0,1-3.5,5.8c-.388.416-.8.812-1.217,1.2A14.2,14.2,0,0,1,2670.452,604.1Z" transform="translate(-2670.452 -592.867)"/></g></g><g transform="translate(2038.442 696.052)"><g transform="translate(0 0)"><path d="M2383.179,1690.959c.151-1.315.429-2.577.683-3.845.573-1.144,1-2.345,1.5-3.52l2.829-7.124c.959-2.377,4.138-11.153,5.248-13.458.562-1.149,1.1-2.309,1.715-3.433l1.744-3.414-1.567,3.5-1.49,3.529c-.981,2.356-4.025,11.167-4.849,13.577l-2.442,7.269c-.4,1.217-.878,2.406-1.236,3.64A37.453,37.453,0,0,1,2383.179,1690.959Z" transform="translate(-2383.179 -1656.165)"/></g></g><path d="M2204.864,1703.219c.026.035.051.072.077.107-.151-1.316-.429-2.578-.683-3.846-.573-1.144-1-2.345-1.5-3.519l-2.829-7.124q-1.438-3.566-3.106-7.03c-.563-1.149-1.1-2.309-1.715-3.433l-1.743-3.414.441.985-.5-.985,1.567,3.5s4.8,13.348,4.922,13.664l2.138,5.739c.219.6.464,1.2.694,1.8.04.129.083.258.122.388l.062.1c.071.2.141.391.2.589a29.47,29.47,0,0,0,1.867,2.591C2204.875,1703.29,2204.868,1703.255,2204.864,1703.219Z" transform="translate(-217.043 -972.754)"/><g transform="translate(2119.956 397.84)"><g transform="translate(0 0)"><path d="M2632.192,745.556l.494,6.111q.127,3.058.322,6.112.4,6.106,1.116,12.186c.477,4.052,1.059,8.091,1.706,12.121l1.014,6.038.79,6.082c-.486-1.987-.927-3.983-1.377-5.979l-1.016-6.046c-.648-4.036-1.231-8.084-1.71-12.146s-.855-8.136-1.119-12.217q-.194-3.061-.325-6.125C2632.1,749.646,2632.117,747.6,2632.192,745.556Z" transform="translate(-2632.088 -745.556)"/></g></g><g transform="translate(2126.77 432.173)"><g transform="translate(0 0)"><path d="M2652.894,867.08c.025-.752.1-1.5.179-2.251.152-.736.316-1.47.5-2.2a41.82,41.82,0,0,1,3.149-8.433q.51-1.006,1.065-1.987c.434-.618.868-1.232,1.339-1.818-.336.674-.68,1.337-.994,2.015q-.55.972-1.055,1.968a41.493,41.493,0,0,0-3.119,8.353c-.18.722-.347,1.448-.492,2.178C2653.26,865.626,2653.085,866.352,2652.894,867.08Z" transform="translate(-2652.894 -850.393)"/></g></g><g transform="translate(1953.376 228.517)"><g transform="translate(0)"><path d="M2123.424,247.525a25.33,25.33,0,0,1,5.827-6.356,38.825,38.825,0,0,1,7.455-4.5,67,67,0,0,1,8.137-3.069l4.164-1.15,2.067-.549,2.19-.522a122.97,122.97,0,0,1,34.467-2.608,139.328,139.328,0,0,1,17.156,2.441,122.546,122.546,0,0,1,16.675,4.772l4,1.59,2,.8,1.988.918,3.876,1.834,3.826,2.025a108.513,108.513,0,0,1,14.356,9.481c-5.016-2.745-10-5.519-15.2-7.721l-3.882-1.687-3.991-1.531-1.953-.745-2.011-.677-4.036-1.357a152.264,152.264,0,0,0-33.114-6.179l-4.2-.206-2.139-.088-2-.035c-2.937.047-5.7,0-8.455.2l-4.247.219-4.231.441c-2.749.224-5.479.75-8.377,1.162l-1.995.364-2.1.437-4.149.872a67.523,67.523,0,0,0-8.078,2.361A32.858,32.858,0,0,0,2123.424,247.525Z" transform="translate(-2123.424 -228.517)"/></g></g><g transform="translate(1881.371 251.848)"><path d="M1912.279,477.422c-2.209-8.177-4.009-16.463-5.477-24.828a237,237,0,0,1-2.893-25.33,188.392,188.392,0,0,1,.163-25.576,163.066,163.066,0,0,1,3.974-25.344,143.79,143.79,0,0,1,8.479-24.249,120.251,120.251,0,0,1,13.1-22.089,104.336,104.336,0,0,1,17.7-18.494c1.647-1.408,3.45-2.6,5.129-3.828a55.045,55.045,0,0,1,5.393-3.477,43.952,43.952,0,0,1,5.768-2.783,30.108,30.108,0,0,1,6.148-1.664,29.813,29.813,0,0,0-5.907,2.214,43.9,43.9,0,0,0-5.425,3.168c-1.732,1.191-3.436,2.411-5.024,3.754-1.65,1.377-3.307,2.635-4.788,4.079a112.176,112.176,0,0,0-16.484,18.853,127.319,127.319,0,0,0-12.181,21.811A144.666,144.666,0,0,0,1911.9,377.3a165.885,165.885,0,0,0-4.091,24.708,213.1,213.1,0,0,0-.815,25.129q.319,12.6,1.727,25.188C1909.647,460.705,1910.927,469.063,1912.279,477.422Z" transform="translate(-1903.551 -299.76)"/></g><g transform="translate(2139.464 362.086)"><g transform="translate(0)"><path d="M2693.307,636.378a42.3,42.3,0,0,1,1.208,11.882c-.011,3.96-.33,7.909-.575,11.859q-.445,5.921-.959,11.836l-.547,5.912q-.336,2.951-.74,5.895l-.037-5.939.017-5.929.121-11.849c.072-3.948.29-7.89.583-11.831C2692.632,644.27,2692.867,640.333,2693.307,636.378Z" transform="translate(-2691.656 -636.378)"/></g></g><g transform="translate(2081.559 252.627)"><path d="M2514.84,302.138a95.281,95.281,0,0,1,13.915,8.6,108.138,108.138,0,0,1,12.251,10.971,121.46,121.46,0,0,1,19.105,26.769,150.53,150.53,0,0,1,6.833,14.981,137.708,137.708,0,0,1,5,15.663,117.647,117.647,0,0,1,2.973,16.151,74.65,74.65,0,0,1,.45,8.2,28.8,28.8,0,0,1-.976,8.124,16.768,16.768,0,0,0,.187-2.021l.029-1.009-.038-1.012c-.007-.672-.05-1.344-.109-2.015s-.1-1.34-.194-2.009c-.294-2.674-.734-5.332-1.28-7.965a154.662,154.662,0,0,0-4.029-15.6c-1.64-5.111-3.414-10.177-5.514-15.109a160.091,160.091,0,0,0-6.848-14.519c-.638-1.175-1.232-2.375-1.9-3.531l-2-3.478-2.118-3.4c-.7-1.142-1.484-2.222-2.2-3.351a130.8,130.8,0,0,0-20.862-24.341A146.793,146.793,0,0,0,2514.84,302.138Z" transform="translate(-2514.84 -302.138)"/></g></g></svg>