<svg xmlns="http://www.w3.org/2000/svg" width="41" height="32.734" viewBox="0 0 41 32.734">
  <g id="car_icon" data-name="car icon" transform="translate(-521 -1066.633)">
    <g id="Layer_2_1_" transform="translate(515.88 1057.359)">
      <g id="Layer_2-2">
        <g id="_14.cur-crush">
          <path id="_Path_" d="M45.989,31.89l-.769,2.974a3.852,3.852,0,0,1-1.128,1.846,5.45,5.45,0,0,1-.564.461L42.605,40.5a1.894,1.894,0,0,1-.359.718,2.032,2.032,0,0,1-2.153.718l-2-.513a2.059,2.059,0,0,1-1.436-2.512l.513-2L21.328,32.659l-.513,2A2.059,2.059,0,0,1,18.3,36.094l-2-.513a2.026,2.026,0,0,1-1.487-1.692,2.219,2.219,0,0,1,.051-.82l.872-3.333a3.56,3.56,0,0,1-.256-.667,4.585,4.585,0,0,1-.051-2.2l.769-2.974a4.035,4.035,0,0,1,2.358-2.717,4.434,4.434,0,0,1,1.179-.308l1.179-1.538,2.051-2.769a5.488,5.488,0,0,1,.718-.82,6.492,6.492,0,0,1,1.692-1.23,5.556,5.556,0,0,1,.974-.41A6.892,6.892,0,0,1,28.4,13.74,6.205,6.205,0,0,1,30.557,14L38.4,16.1a8.624,8.624,0,0,1,2,.82,7.072,7.072,0,0,1,3.281,5.23l.41,3.435.205,1.948a3.776,3.776,0,0,1,1.436,1.9,3.179,3.179,0,0,1,.256,2.461ZM21.533,24.251a1.931,1.931,0,0,0-2.461,1.23c0,.051-.051.154-.051.205a1.931,1.931,0,0,0,1.23,2.461c.051,0,.154.051.205.051,1.179.308,2.922.974,3.23-.205a3.929,3.929,0,0,0-2.153-3.743Zm18.611,1.794-.41-3.435a4.331,4.331,0,0,0-.256-.872,2.88,2.88,0,0,0-2-1.692l-7.9-2.1A3.109,3.109,0,0,0,26.3,19.072l-2.051,2.769,11.023,2.974Zm1.179,3.486a3.929,3.929,0,0,0-3.743,2.153c-.308,1.179,1.538,1.487,2.717,1.794a2,2,0,0,0,2.615-1.23,2.036,2.036,0,0,0-1.23-2.615C41.58,29.583,41.426,29.583,41.324,29.532Z" fill="#6b1d74"/>
          <path id="_Path_2" d="M14.3,23.379l-.82,2.974a5.362,5.362,0,0,0-.154,2.2L11.074,30.4a.578.578,0,0,1-.82-.1.523.523,0,0,1-.1-.461l.974-4.922a.579.579,0,0,0-.461-.667h-.051L5.64,23.789a.568.568,0,0,1-.513-.615.523.523,0,0,1,.256-.41L9.536,20a.588.588,0,0,0,.154-.82.05.05,0,0,0-.051-.051L6.46,15.278a.578.578,0,0,1,.1-.82.523.523,0,0,1,.461-.1l4.922.974a.579.579,0,0,0,.667-.461v-.051l.461-5.024a.568.568,0,0,1,.615-.513.523.523,0,0,1,.41.256l2.769,4.153a.571.571,0,0,0,.82.154.05.05,0,0,0,.051-.051l3.845-3.179a.578.578,0,0,1,.82.1.523.523,0,0,1,.1.461l-.718,3.589c-.154.205-.359.41-.513.615L19.226,18.15l-.667.923A6.114,6.114,0,0,0,14.3,23.379Z" fill="#6b1d74"/>
        </g>
      </g>
    </g>
  </g>
</svg>
