<svg xmlns="http://www.w3.org/2000/svg" width="21" height="15" viewBox="0 0 21 15"><g transform="translate(0.5 -76.3)"><g transform="translate(1.7 76.8)"><g transform="translate(0 0)"><path d="M43.52,76.8l8.3,5.8,8.3-5.8Z" transform="translate(-43.52 -76.8)" fill="#fff"/><path d="M41.932,76.3H61.708L51.82,83.21Zm16.6,1H45.108l6.712,4.69Z" transform="translate(-43.52 -76.8)" fill="rgba(0,0,0,0)"/></g></g><g transform="translate(0 78)"><g transform="translate(0 0)"><path d="M10.5,114.12a1.083,1.083,0,0,1-1.1,0L0,107.52v11.8a1.075,1.075,0,0,0,1,1H19a1.075,1.075,0,0,0,1-1v-11.8Z" transform="translate(0 -107.52)" fill="#fff"/><path d="M19,120.82H1a1.58,1.58,0,0,1-1.5-1.5V106.558l10.181,7.148a.6.6,0,0,0,.539,0l10.28-7.142V119.32A1.58,1.58,0,0,1,19,120.82ZM.5,108.482V119.32a.585.585,0,0,0,.5.5H19a.585.585,0,0,0,.5-.5V108.476l-8.723,6.06a1.58,1.58,0,0,1-1.655,0l-.01-.007Z" transform="translate(0 -107.52)" fill="rgba(0,0,0,0)"/></g></g></g></svg>