<svg xmlns="http://www.w3.org/2000/svg" xmlns:xlink="http://www.w3.org/1999/xlink" width="373.33" height="417.82" viewBox="0 0 373.33 417.82"><defs><clipPath id="a"><path d="M0,0H373.33V-417.82H0Z" fill="none"/></clipPath></defs><g transform="translate(0 417.82)"><g clip-path="url(#a)"><g transform="translate(372.465 -309.889)"><path d="M0,0A20.256,20.256,0,0,0,.694-8.7C.081-14.194-.614-19.655-2.589-24.982c-1.5-4.054-1.593-8.631-2.32-12.974C-7.258-52.005-9.483-66.068-9.826-80.35c-.022-.936.015-2.317-.034-3.411,1.6.8,2.066-.093,1.853-1.494a18.432,18.432,0,0,0-.884-4.668c-2.554-5.752-2.686-11.922-3.437-17.985H-13.8c0,.034.008.09.01.117-.009-.035-.021-.08-.03-.117H-14.6c.433,1.714.811,3.3,1.094,4.632-.562-1.677-1.167-3.21-1.8-4.632h-1.412a47.7,47.7,0,0,1,2.853,8.127c-2.743-2.5-5.688-5.325-8.571-8.127h-2.3c2.339,2.266,4.685,4.526,6.942,6.863,2.445,2.532,5.2,4.925,5.5,8.806.325,4.325.859,8.654.847,12.979-.034,11.631,1.859,23.028,3.737,34.44C-6.43-37.053-5.3-29.26-3.936-21.507a76.612,76.612,0,0,0,2.316,8.8A7.206,7.206,0,0,1-2.591-5.98,20.793,20.793,0,0,1-10.9,1.413C-15.934,3.776-20.88,6.356-26.025,8.45A33.192,33.192,0,0,0-39.212,18c-4.472,5.3-9.187,10.386-12.645,16.463-3.6,6.326-5.633,12.96-4.163,20.3.1.506.638.925.973,1.385a5.37,5.37,0,0,0,.778-1.369c.466-2.094.845-4.207,1.333-6.716,1.778,3.7,3.69,6.651,6.8,8.793,3.825,2.637,9.37,3.092,15.184.433,1.385-.443,2.534.234,4.929-.221,1.329.166,1.348-1.113-.166-1.661a59.727,59.727,0,0,1-9.636-4.874,100.96,100.96,0,0,0,17.555,5.095c1.3,8.964,3.28,18.058,4.469,27.031a45.151,45.151,0,0,1-1.034,18.069c-1.091,3.962-1.605,8.091-2.816,12.01-2.109,6.823-4.567,13.537-6.858,20.3-.9,2.666-1.83,5.328-2.607,8.032a115.316,115.316,0,0,1-11.132,26.281c-1.634,2.809-2.988,5.786-4.7,8.543-1,1.608-2.964,2.686-4.505,4.476-.325-1.8.4-2.889-.093-3.993-.446-.994-.99-2.475-2.413-2.166s-.37-1.035-.234-1.418c.583-1.641.1-2.111-1.619-1.771a26.285,26.285,0,0,1-5.16.539c-2.73-.01-4.032-1.375-3.824-4.089-.683-7.968.893-7.132,1.129-10.712a23.488,23.488,0,0,0-.92-9.746c6.134,1.449,12.853,2.372,16.848-4.36-.719.3-.9-.695-2.126.94s-7.4,3.8-11.617,2.877c-4.643-1.018-9.414-3.108-14.034-4.253-3.207-.794-6.089.156-9.337,1.055-3.483.964-7.32,1.843-10.811,1.362-11.386-1.568-14.652-14.338-11.347-21.671a19.545,19.545,0,0,1,4.283-5.5c1.44-1.5-.016-2.084-.669-1.561-6.8,5.018-7.174,10.942-5.948,17.233,1.1,5.67,4.917,9.4,8.954,12.913,3.008,2.615,7.123,1.81,10.719,1.246,3.756-.589,6.836-1.551,10.587-2.173a20.824,20.824,0,0,1,11.71,1.784c1.092.528,1.729,2.423,2,3.669a18.644,18.644,0,0,1,.1,5.822c-1.873,4.784-1.2,8.687-1.092,13.037-2.454.557-5.13,1.673-8.973,5.32a9.512,9.512,0,0,1-4.936,1.033c-4.923-.288-9.695-.4-14.454,1.528-2.757,1.116-5.927,1.2-8.9,1.79-4.887.97-9.741,2.15-14.659,2.913-4.264.662-8.6.862-12.9,1.282-1.143.112-2.533-.4-3.564.01a2.78,2.78,0,0,0-1.671,1.732c-.17,1.151,1.358,2.619,2.846,2.846,2.446.374,4.122.685,6.558,1.114,1.926.339,4.327.32,6.249.681,2.466.462,4.384,1.677,6.865,2.039,4.283.624,8.6,1.158,12.915,1.4,6.349.36,12.714.455,19.073.613,6.291.157,11.633-1.7,14.479-7.458.869-1.756,1.336-1.625,1.671-1.609,2.784.124,2.042-2.042,2.042-3.093s2.351-1.671,3.341-2.846c.581-.691,2.227-.124,3.959-2.413.716-.338,3.342-2.352,3.417,1.232-1.5.191-.361,1.227-.58,1.9-2.9,3.974-3.254,9.359-4.8,13.99-.682-3.278-1.624-5.23-2.475-6.135-.219,0-1.323-.557-1.258,1.532-.017,1.223.2,2.448.221,3.673.117,5.826-2.742,10.029-7.661,12.652a47.75,47.75,0,0,1-31.949,4.766c-3.9-.72-7.726-1.817-11.565-2.823a6.569,6.569,0,0,1-2.281-1.2c-4.5-3.513-8.957-7.074-13.431-10.616a1.436,1.436,0,0,0-1.276-.3c.5.88.785,2.016,1.516,2.6,4.3,3.417,8.565,6.9,13.123,9.944a18.588,18.588,0,0,0,6.939,2.307,124.55,124.55,0,0,0,15.183,2.141,47.129,47.129,0,0,0,22.908-4.718,17.83,17.83,0,0,0,9-8.393,19.085,19.085,0,0,0,1.225-6.63c.9,3.469.515,8.2.424,11.469-.206,7.378-2.463,14.386-4.473,21.36-2.485,8.62-7.552,16.039-12.557,23.4-1.1,1.614-2.25,3.19-3.386,4.777a15.58,15.58,0,0,1-7.507,5.634c-4.936,1.827-9.758,3.976-14.748,5.63a22.637,22.637,0,0,1-7.88,1.172c-9.521-.393-19.031-1.067-28.541-1.708-1.423-.1-2.808-.747-4.232-.852-2.344-.172-4.713,0-7.059-.162-7.439-.51-13.974-3.53-20.036-7.626-9.1-6.15-18.186-12.333-27.145-18.689-3.644-2.585-6.986-5.607-10.392-8.518-11.317-9.672-22.876-19.086-33.819-29.167-10.375-9.558-19.838-20.032-27.039-32.334a100.778,100.778,0,0,1-13.592-42.158c-.432-4.673-1.107-9.326-1.751-13.977a12.276,12.276,0,0,0-.975-3.311c-1.065-2.37-2.99-3.517-5.45-2.777-4.935,1.486-9.137.128-13.385-2.373-12.109-7.13-22.3-16.334-29.824-28.173-7.107-11.184-11.17-23.484-10.9-36.911a54.936,54.936,0,0,1,1.291-9.423,10.929,10.929,0,0,1,1.81-3.9c2.117-3.079,2.364-3.891,5.02-1.438,3.915,3.616,8.021,7.324,11.634,11.233a11.884,11.884,0,0,1,2.488,4.012c.228.768-.723,3.049,1.283,2.728.615,1.235,3.933,13.053,5.36,18.206,2.609,9.427,5.614,18.694,10.4,27.286a15.6,15.6,0,0,0,1.746,2.731c1.591,1.765,2.474.24,2.5-1-.368-3.228-.89-6.439-1.344-9.658-1.6-11.367-.7-22.369,4.868-32.662,2.851-5.276,5.6-10.62,8.7-15.744,3.327-5.485,8.123-9.334,13.834-12.436,8.231-4.472,17.021-7.133,25.909-9.732,13.356-3.9,25.629-10.249,37.379-17.551,6.142-3.816,10.936-9.281,14.923-15.266,4.453-6.685,10.1-12.223,15.747-17.81a29.411,29.411,0,0,0,2.878-3.443,154.284,154.284,0,0,0,13.09-23.04c3.436-7.4,11.741-19.591,16.3-23.34-.624,1.1-2.538,4.559-3.1,5.692-.706,1.428-.209,2.236,1.31,1.849a19.151,19.151,0,0,0,6.052-2.239c5.539-3.775,11.075-7.606,16.241-11.866,3.312-2.732,6.619-5.453,10.016-8.052h-2.662c-.6.45-1.215.891-1.811,1.353-5.36,4.156-10.346,8.8-15.756,12.884-3.287,2.481-11.673,6.769-11.242,5.645a28.9,28.9,0,0,1,2.449-4.289c3.475-5.326,6.743-11,12.268-14.394.665-.409,1.338-.8,2.01-1.2h-3.662c-13.306,11.863-24.773,25.255-32.176,41.763-3.4,7.582-7.569,14.734-13.435,20.758-.762.782-1.4,1.459-2.572.668-.311-.21-.863-.061-1.305-.078a4.837,4.837,0,0,0,.29,1.373c.207.384.643.645,1.309,1.27a24.463,24.463,0,0,0-2.055,1.6c-13.044,12.668-28.393,21.737-44.921,29.035-5.677,2.506-11.166,5.436-16.739,8.176-.543.267-3.915,2.2-4.451,2.477.41-.792,3.846-2.929,4.448-3.418,10.653-8.666,21.345-17.283,31.945-26.013,5.966-4.913,10.929-9.677,16.79-14.716,1.257-1.028,5.142-3.656.229-4,9.234-10.163,17.433-22.015,24.626-33.643a177.4,177.4,0,0,1,18.711-25.249h-2.22a183.546,183.546,0,0,0-17.984,24.56c-7.354,11.867-15.08,23.491-24.636,33.758a6.984,6.984,0,0,1-2.763,1.924c-3.5,1.128-7.068,2.074-10.624,3.04-3.106.843-6.23,1.619-9.984,2.589,1.357-1.881,2.346-3.19,3.271-4.542,6.772-9.9,13.375-19.929,20.341-29.693,6.335-8.88,13.41-17.244,19.518-26.269q1.826-2.7,3.681-5.367h-2.113c-.1.144-.2.28-.3.425-5.2,7.81-10.94,15.256-16.42,22.878q-9.678,13.461-19.3,26.957c-3.6,5.064-7.057,10.226-10.66,15.287a6.067,6.067,0,0,1-2.445,2.019c-19.381,8.119-37.055,19.186-54.175,31.22a16.732,16.732,0,0,1-1.7.841c1.891-2.84,3.4-5.127,4.928-7.395,6.938-10.264,12.6-21.484,22.262-29.707.054-.047.126-.1.142-.161.2-.739.38-1.48.568-2.22a9.051,9.051,0,0,0-1.983.907c-3.217,2.545-6.319,5.237-9.581,7.721-9.251,7.042-18.686,13.849-27.8,21.057C-298.11-13.1-303.852-7.46-307.763-.262c-.131.241-.226.5-.338.753l-.621-.4c1.169-3,1.985-6.206,3.576-8.963,4.291-7.436,8.759-14.783,13.457-21.969,3.194-4.884,4.813-8.321,10.222-14.366.724-.983,1.054-1.671,2.227-1.227a15.141,15.141,0,0,0,8.409.34c7.082-1.336,12.514-5.617,17.024-10.912,9.371-11,18.682-22.067,27.653-33.4,4.534-5.724,8.858-11.613,13.183-17.5h-2.3C-226.49-92.589-238.118-77.592-250.6-63.269a127.452,127.452,0,0,1-9.9,10.276,22.252,22.252,0,0,1-12.655,5.7c-1.714.2-4.058-.413-5.8-.413,1.153-1.6,2.286-2.025,2.986-3.083.46-.7,2.071-4.191-1.651-2.747a27.807,27.807,0,0,0-3.264,1.629c-.6.329-1.155.737-2.243,1.441a39.9,39.9,0,0,1,.044-6.058A53.241,53.241,0,0,1-274.433-78.1c7.059-10.214,14.44-20.186,22.262-29.812h-2.06c-5.889,7.435-11.559,15.048-17.341,22.568a69.367,69.367,0,0,0-11.986,23.417c-1.01,3.559-2.045,9.8-.5,12.031-1.273,1.636-10.878,6.221-15.557,8.308a41.188,41.188,0,0,0-13.943,9.745c-4.528,4.966-8.875,10.1-13.283,15.171a20.668,20.668,0,0,0-4.978,11.114c-.306,2.341-.692,4.67-1.042,7a31.386,31.386,0,0,1-.124-5.852q.865-7.959,2.007-15.885c.633-4.413.74-11.45,1.539-12.6.443-.641,1.508-2.485.443-2.4s-.328-.882-.265-1.588c.366-4.1.875-8.183,1.225-12.282.758-8.853,1.153-17.747,2.229-26.56a79.023,79.023,0,0,1,10.863-32.193h-1.925c-.105.174-.219.34-.322.515-7.362,12.45-10.051,26.215-11.3,40.355-.628,7.124-.9,14.279-1.377,21.416-.041.608-.159,1.7-.815,1.82s-.7-2.194-.731-3.19c-.646-17.777-1.412-35.579,2.058-53.174.432-2.187,1-4.884,1.623-7.742h-2.022c-.084.418-.162.836-.247,1.253-3.994,19.574-3.975,39.35-2.966,59.17a27.325,27.325,0,0,1,.067,5.191c-3.9,4.17-5.878,14.736-7.277,20.686-2.532,10.764-4.537,21.666-9.258,31.771a74.151,74.151,0,0,1-4.6,8.082,3.969,3.969,0,0,1-3.338,2.019,11.049,11.049,0,0,1,.113-2.341c.527-10.174,1.22-20.343,1.561-30.524.164-4.884.574-9.254-.572-14.956s-4.749-2.119-5.64-.326a46.907,46.907,0,0,0-2.3,10.893c-.832,10.178-.7,20.388,1.494,30.419.586,2.676,1.737,6.675,3.9,7.878-.081,23.108,10.425,48.9,27.707,67.011,2.986,3.13,7.846,6.689,10.967,9.7-.562,1.605.35,4.659.922,6.037a94.04,94.04,0,0,1,7,36.564c.007,13.281.606,26.589,1.6,39.835.968,12.838,3.695,25.336,10.96,36.359,10.47,15.885,23.7,28.589,41.07,36.931,10.536,5.06,21.141,9.725,32.592,12.2,9.048,1.953,18.235,1.851,27.424,1.508,7.078-.263,14.182-.212,21.229-.823,14.245-1.233,28.474-.663,42.684.1,21.06,1.136,41.65,4.707,60.9,13.866a98.5,98.5,0,0,1,31.135,23.518,51.394,51.394,0,0,1,4.479,5.781h1.644A69.888,69.888,0,0,0-50.91,293.671c-15.32-12.826-29.4-21.193-59.665-26.074a54.555,54.555,0,0,0,17.233-2.849,75.271,75.271,0,0,0,12.3-5.351,22.13,22.13,0,0,0,6.558-5.795A128.475,128.475,0,0,0-60.4,230.5a14.732,14.732,0,0,0,1.059-2.608c2.092-8.167,4.509-16.216,5.319-24.72.617-6.478,2.2-17.319,4.994-21.795.559.895,1.343,3.133,7.019-4.051a137.133,137.133,0,0,0,9.377-17.322c3.021-6.929,5.215-14.216,7.824-21.326,1.892-5.155,4.03-10.224,5.768-15.428,1.367-4.094,2.324-8.328,3.4-12.517.628-2.446.942-4.986,1.723-7.377,3.108-9.526,2.408-19.107.643-28.719-1.1-6.017-2.272-12.022-3.519-18.6,2.146.351,4.056.468,5.66.583,2.71.194,1.451-1.279.31-1.747s-2.81-1.147-4.175-1.8a10.458,10.458,0,0,1-1.895-1.044A6.07,6.07,0,0,1-17,50.644a13.5,13.5,0,0,0,6.705-3.138,2.573,2.573,0,0,0,.6-2.012c-.139-.315-1.385-1.772-6.147.277-.111-1.44-1.5-.609-1.662.775-2.658,1.495-7.389,2.806-11.131,1.938-1.406-.326-2.411-.632-3.821-.941-1.169-.256-4.208-.941-1.717,1.828a51.062,51.062,0,0,1-7.2-4.154c3.571,0,7.177.482,10.244.443,2.811-.035,6.213.63,8.886-.016a25.872,25.872,0,0,0,7.484-3.58,3.635,3.635,0,0,0,1.274-4.805c-3.11-7.365-2.025-14.268,2.458-20.733,1.975-2.847,4.1-5.594,6.045-8.458C-3.19,5.447-1.025,2.914,0,0M-16.556,49.038s.664-3.156,4.928-2.6a6.944,6.944,0,0,1-4.928,2.6M-358.62,8.726c-.133,3.134-.192,7.927-.513,10.174a25.73,25.73,0,0,1-1.9-5.206c-2-8.3-2.086-16.775-1.944-25.223a79.309,79.309,0,0,1,1.591-12.653c.295-1.638,2.037-5.163,2.839-4.785s1.386,4.591,1.312,6.73c-.36,10.325-.954,20.641-1.388,30.963m27.406-50.487.887-.621-.532,3.46Zm49.383-7.813,4.181-2.954c.728-.455,1.273-.045.682.727-1.4,1.186-2.187,2.041-3.59,3.227-.231-.317-1.043-.683-1.273-1m80.68,7.2,4.482-4.572c1.076,0,1.166.269.538.628s-5.02,3.944-5.02,3.944m-16.513,12.185c-1.954,1.217-4.607,1.469-6.992,1.777a1.936,1.936,0,0,1-2.186-2.671c1.245-4.061,2.467-8.131,7.045-9.5,5.675-1.695,19.15-5.474,19.632-5.558.257.346-4.727,6-7.243,8.049a102.526,102.526,0,0,1-10.256,7.9m-41.51,39.507c1.206-.928,18.076-13.445,27.912-17.422a168.463,168.463,0,0,0,38.529-21.481,8.677,8.677,0,0,1,.834-.5c-4.963,7.88-10.618,15.136-18.807,19.721A241.913,241.913,0,0,1-234.293,1.561a179.293,179.293,0,0,1-24.881,7.754m5.556-5.933q.379-.264.741-.487a3.7,3.7,0,0,1-.741.487m-62.508,34.936c0-3.05,1.524-12.173,2.523-17.494,2.308-12.292,7.219-23.312,16.535-32A251.6,251.6,0,0,1-267.279-35c1.15-.785,2.331-1.527,3.5-2.289-2.1,3.986-4.5,7.584-6.865,11.206-7.183,11.016-14.107,22.2-22.778,32.182a39.8,39.8,0,0,0-8.7,17.981c-.643,2.966-1.3,5.929-1.921,8.9-1.785,8.572-1.238,23.606-1.123,25.9s2.1,1.739,1.947-.63.574-13.141.789-19.715a47.86,47.86,0,0,1,7.8-24.925c2.162-3.337,4.445-6.6,6.459-10.027a36.97,36.97,0,0,1,10.717-11.5c15.91-11.235,32.334-21.614,50.256-29.421a12.546,12.546,0,0,1,1.382-.423,39.584,39.584,0,0,0-2.462,5.653c-.935,3.549.664,5.539,4.31,5.4a46.651,46.651,0,0,0,6.209-1.054,8.339,8.339,0,0,1-.8.9c-3.381,2.833-6.691,5.757-10.175,8.457C-240.671-9.15-252.062.828-264.969,8.783c-2.276,1.4-4.558,2.8-6.782,4.288-4.831,3.226-8.509,7.744-11.951,12.209A93.216,93.216,0,0,0-298.815,54.4c-2.891,9.211-1.785,18.6-.446,27.942.159,1.106.627,4.2.627,4.2s-1.137-1.669-1.35-2.161c-2.266-5.234-4.86-10.358-6.684-15.742-3.315-9.78-5.366-20.37-9.458-30.319m165.9,225.837c-7.86.234-15.588.437-23.314.7-9.175.313-18.356.546-27.522,1.057a96.015,96.015,0,0,1-23.107-1.3c-14.242-2.669-27.193-8.694-39.759-15.684a80.812,80.812,0,0,1-21.93-17.142c-8.532-9.729-16.511-19.749-19.888-32.646a129.469,129.469,0,0,1-4.009-26.967c-.529-11.621-.617-23.262-.958-34.892-.108-3.681-.259-7.374-.664-11.031-.859-7.747-3.347-15.071-6.15-22.3a14.735,14.735,0,0,1-1.171-4.569c8.638,7.137,13.947,14.2,15.235,23.807,1.276,9.509,1.671,19.132,2.727,28.674.873,7.889,1.329,15.957,3.415,23.549a77.349,77.349,0,0,0,23.537,38.285,325.338,325.338,0,0,0,27.6,21.692c9.235,6.488,17.549,13.659,23.664,23.211a6.062,6.062,0,0,0,1.495,1.841c2.085,1.411,1.752-.761,1.476-1.108-4.09-5.138-7.774-10.706-12.458-15.239-9.6-9.292-19.55-18.255-29.725-26.918a71.722,71.722,0,0,1-20.88-29.85c-4.979-13.118-6.768-26.857-8.534-40.623-.865-6.743-1.724-13.465-4.6-19.76-4.036-8.837-9.823-16.5-15.894-23.963a23.868,23.868,0,0,0-3.712-3.308c-2.53-2.031-5.181-3.915-7.657-6.008-15.865-13.417-26-30.423-31.3-50.4a101.433,101.433,0,0,1-2.816-21.314c3.53-.642,4.711-2.357,7.1-6.834,4.92-9.211,7.57-19.176,9.872-29.284,1.634-7.177,3.594-14.282,5.49-21.4a38.149,38.149,0,0,1,2.118-4.776c.088,3.46.265,5.412,1.064,6.122a121.682,121.682,0,0,1-2.011,16.312c-1.842,8.254-1.235,16.534-1.084,24.826.012.65.647,1.29.993,1.935.5-.6,1.32-1.146,1.451-1.821.6-3.118,1.136-6.261,1.468-9.418.552-5.235,2.062-10,5.659-14.015,3.57-3.983,6.982-8.109,10.512-12.129a46.371,46.371,0,0,1,16.708-12.115c4.7-2.03,14.681-7.884,14.681-7.884A11.39,11.39,0,0,0-281.62-47.5c-21.849,28.752-28.767,35.748-36.387,82.164a63.863,63.863,0,0,0-4.726-5.65c-3.077-2.945-6.39-5.642-9.565-8.486-1.706-1.529-2.8-1.627-4.48-.089a14.128,14.128,0,0,0-4.307,7.852,53.9,53.9,0,0,0,.343,22.6c4,17.914,13.566,32.408,27.81,43.8,4.436,3.547,9.3,6.579,14.064,9.688A14.777,14.777,0,0,0-287.4,106.3c3.645-.77,5.065-.046,5.706,3.721.763,4.482,1.3,9.007,1.786,13.531a109.666,109.666,0,0,0,8.87,34.247c7.5,16.469,19.037,29.836,31.991,42,9.418,8.846,19.983,16.473,29.375,25.343,13.359,12.618,29,21.982,43.933,32.379a42.435,42.435,0,0,0,15.517,6.629M-293.314,142.336c1.218,9.593,2.478,19.206,4.355,28.685,3.913,19.77,12.323,37.025,28.755,49.7a136.526,136.526,0,0,1,12.194,11.405c-4.628-3.7-12.58-9.59-17.536-13.44-20.877-16.215-31.844-37.518-33.465-63.89-.752-12.214-.413-24.574-3.7-36.586a52.446,52.446,0,0,1,9.4,24.126m182.595,47.531c7.115-.371,16.581-1.67,20.046-2.722s8.915-1.98,11.631-1.609,8.866-.5,13.179-2.227c1.411-.565,3.959-1.67,4.454-1.485s.5,1.31.124,1.237c-2.846-.556-3.338,2.679-4.387,3.9-.467.545-.989,1.044-1.492,1.557-3.107,3.172-7.073,3.656-11.213,3.547-6.5-.172-13.006-.311-19.5-.588-3.072-.131-9.773-1.325-12.838-1.614M-54.6,175.142c-1.609.124-1.525.795-2.246,1.514-4.352,4.338-9.833,6.174-15.674,7.016-4.552.656-9.2.666-13.748,1.344-4.841.72-9.58,2.164-14.429,2.794-6.582.854-13.559,1.091-20.1-1.1-1.833-.613-4.207-.062-5.629-.067a9.387,9.387,0,0,1-3.838-.923c-1.051-.619.868-1.231,2.1-1.052s10.382-.581,15.446-1.273c3.422-.468,6.464-1.754,9.859-2.439a98.307,98.307,0,0,1,12.065-1.98c1.841-.115,1.98-1.361,4.021-1.547a24.29,24.29,0,0,1,6.5-.557c2.213.053,4.419.83,6.5.31,3.55-.514,4-2.137,5.878-3.4,2.723-1.835,4.923-3.577,8.352-1.609a8.365,8.365,0,0,0,3.9.805c.9.032,2.985-.806,3.589-.372s-.928,2.413-2.537,2.537M-16.944,54.631l.007-1.117L-13.972,55Zm-1-6.479-.276,1.163a8.911,8.911,0,0,1-2.714-.111Zm-2.824,2.6c.554,0,2.6-.056,2.6-.056l-.055,1.219a17.762,17.762,0,0,0-2.548-1.163m-10.632.111c4.928-1.219,9.265,1.33,12.636,2.537-.06.246.216.539.156.785-3.467-.814-9.326-2.508-12.792-3.322m-19.66-4.486c5.649,6.092,12.239,8.528,17.389,10.245C-40.812,60.778-52,51.032-51.057,46.38m4.5-17.276c-4.587,6.7-7.294,16.688-8.374,19.588A32.132,32.132,0,0,1-46.56,29.1m10.631-9.539A100.1,100.1,0,0,1-22.6,14.1c5.343-1.823,10.98-4.053,15.16-7.9,1.177-1.082,2.411-2.1,3.619-3.153A13.113,13.113,0,0,1-5.865,6.6c-2.28,3.16-4.627,6.275-6.816,9.5-4.5,6.618-5.44,13.723-2.495,21.214.719,1.83.161,3.013-1.231,4.133a13.451,13.451,0,0,1-8.859,2.979q-7.8-.1-15.6-.488c-1.222-.061-2.552.227-3.494-1.213-.545-.834-2.713-.886-1.606.831-.085.361-.879.647-1.176.919-1.169,1.074-.407,1.7.678,2.348.729.437,2.84.709,3.6,1.108a125.172,125.172,0,0,1,10.633,6.7c-6.522-1.262-13.623-5.759-18.109-9.968a1.572,1.572,0,0,0-1.44-.11c1.391-6.547,5.485-12.125,8.392-17.989a15.062,15.062,0,0,1,7.456-7m-9.147,26.427c-.609-.11-1.052-.664-.332-1s2.049.941,2.437,1.55c0,0-1.5-.443-2.1-.554M-.831-5.848A17.218,17.218,0,0,1-3.552-.158C-7,4.2-11.079,7.954-16.191,10.134c-6.754,2.879-13.718,5.265-20.794,7.94a22.062,22.062,0,0,1,8.178-6.55c3.1-1.366,6.356-2.441,9.35-4.01C-13.252,4.264-3.817-.022-.831-5.848M-335.063-102.1c.921-1.919,1.794-3.861,2.665-5.808h-2.1c-2.172,4.982-4.369,9.953-6.636,14.891a47.306,47.306,0,0,1-6.076,9.445,19.773,19.773,0,0,1-12.232,7.645c-5.832,1.022-10.328-1.863-11.187-7.695a21.157,21.157,0,0,1,.4-7.7,127.866,127.866,0,0,1,4.918-16.584h-1.766a131.56,131.56,0,0,0-4.944,17.249,20.969,20.969,0,0,0-.135,7.947c1.146,6.633,7.074,9.876,14.276,8.114a22.644,22.644,0,0,0,14-10.622,179.058,179.058,0,0,0,8.812-16.88" fill="#908054"/></g><g transform="translate(67.714 -368.403)"><path d="M0,0A22.247,22.247,0,0,0-.738,4.69C-.839,6.941.463,7.941,2.4,6.82A15.121,15.121,0,0,0,7.36,2.474,90.078,90.078,0,0,0,13.938-8.958,216.037,216.037,0,0,1,38.11-48.68c.194-.25.4-.489.593-.737H36.56A174.7,174.7,0,0,0,24.324-31.458c-4.784,7.982-8.776,16.435-13.265,24.6A107.99,107.99,0,0,1,4.824,3.006c-.8,1.135-3.269,2.865-3.784,2.457s.1-3.915.694-5.629c4.009-15.042,10.08-29.219,15.3-43.764.667-1.856,1.4-3.68,2.162-5.487H17.614c-.066.156-.141.309-.206.466C10.708-32.974,4.475-16.786,0,0" fill="#908054"/></g><g transform="translate(150.793 -365.494)"><path d="M0,0A5.814,5.814,0,0,0-.03,2.12C.6,1.765,1.451,1.562,1.809,1.027A24.525,24.525,0,0,0,4.191-3.34c5.078-12.515,12.624-23.5,20.728-34.2,3.824-5.046,7.739-10,11.837-14.788H34.545C28.767-45.458,23.38-38.253,18.06-30.992c-2.039,2.782-3.972,5.642-6.224,8.34.5-1.157.993-2.315,1.5-3.47A203.858,203.858,0,0,1,27.3-52.326h-2c-1.144,1.872-2.243,3.769-3.267,5.7C16-35.2,10.727-23.373,5.184-11.693,3.357-7.842,1.665-3.924,0,0" fill="#908054"/></g><g transform="translate(257.827 -293.235)"><path d="M0,0C-3.7-1.5-.054-2.086.641-2.105A23.661,23.661,0,0,1,13.825,1.546a14.329,14.329,0,0,1,5.688,6.936c1.01,2.411-.565,4.944-3.041,5.741-.571.183-2.685-.726-2.032-2.395-.87.145-1.458-.075-3.338-1.669C.726,1.089-9.506,1.814-13.57,1.669c5.357,2.17,19.956,7.91,21.262,8.417s.168,2.365-.943,1.815C-.29,8.417-17.007,5.406-21,5.406c3.574.711,4.02,2.607.535,3.053a60.5,60.5,0,0,1,6.714,1.884A41.622,41.622,0,0,1,.507,17.5a18.663,18.663,0,0,1,4.86,5.677c4.473,8.6,3.16,16.776-2.7,24.281-.859,1.1-3.552,3.118-3.7.433-.083-.129-14.888-.518-14.948-.291,4.229,1.513,13.036,5.614,14.812,5.741S2.81,54.9-.822,54.995s-13.616-.373-19.856-2.491c-.658-.223-1.351-.34-2.028-.506a72.88,72.88,0,0,0,6.113,5.2c.668.558,3.286,2.593-1.2,3.1a9.294,9.294,0,0,1-3.421-.489c-.938-.262-4.322-2.477-4.488-2.268,1.964,1.8,5.2,5.474,7.075,7.363a2.227,2.227,0,0,1,.471,2.036,2.327,2.327,0,0,1-2.038.708,11.858,11.858,0,0,1-3.764-1.556c-3.047-2.02-5.987-4.2-8.992-6.34A57.593,57.593,0,0,1-31.268,65.5c.145.757.126,2.266-.755,2.5a2.99,2.99,0,0,1-2.614-.936c-1.995-2.281-3.768-4.756-5.641-7.145-.438-.559-.945-1.065-1.71-1.92a45.252,45.252,0,0,1,.936,6.071,3.042,3.042,0,0,1-1.466,2.3c-.54.258-1.818-.311-2.342-.894a18.061,18.061,0,0,1-2.329-3.632c-.861-1.615-1.7-3.732-2.674-5.765-.48,1.162-.507,2.456-1,2.986-2.122,2.746-3.717.41-4.085-.341-.444-.91-.471-2.75-.722-3.806-2.684,2.467-4.508,2.505-6.181-.985-.344-.717-1.337-3.763-1.8-4.385A12.842,12.842,0,0,0-66.916,48.4c1,1.243-.862,2.371-2.249,2.322-.718-.026-1.307-1.089-1.307-1.089l.944-.508S-81.211,46-85.057,43.244c-.52-.216-.726-2.177.871-1.524,1.666.682,4.128,2.5,5.85,2.831A7.677,7.677,0,0,0-73.666,44c5.312-2.763,10.413-5.932,15.727-8.691a30.826,30.826,0,0,1,7.348-2.515c7.376-1.676,14.825-.746,22.246-.262,3.889.253,9.394.192,12.3,1.063s.122,1.991-.581,1.959a97.069,97.069,0,0,0-22.536,2.037c-8.081,1.555-15.389,2.138-23.47,3.695-2.82.544-7.111,1.6-9.07,3.484.007.083.052.151.684.316.84-1.115,3.808.829,5.484,1.062,1.016-.871,2.032-.508,2.539,1.089a13.884,13.884,0,0,0,2.273,1.211c4.856,2.448,10.147,2.427,15.417,2.88a31.027,31.027,0,0,0,18.012-4.6c4.209-2.83,4.448-1.564,9.869-5.007,5.37-3.411,8.538-4.429,9.578-4.717a7.267,7.267,0,0,1,9.207,6.973,14.146,14.146,0,0,0,.25,1.583,3.931,3.931,0,0,0,.862-.552c5.445-6.909,5.593-20.16-2.649-26A54.583,54.583,0,0,0-39.765,8.925c-4.648.577-9.507,2.591-14.157,2.981C-65.28,12.86-84.392,10.159-87,9.579s-2.9-2.468-.8-1.887c2.681.739,10.262,1.326,14.685,1.1,7.2-.363,15.941-1.528,23.121-2.264-.8-1.379,1.489-1.566,2.454-1.859,8.518-2.587,17.135-2.059,25.775-.716,4.292.668,8.595,1.272,12.893,1.9-2.037-1.207-4.155-2.106-6.18-3.179-2.578-1.376-.91-2.7,1.34-2.682,8.781.073,16.7,1.866,23.9,7.692.464.375.975.691,1.95,1.375C9.966,6.241,5.225,2.62,0,0M-27.3,34.028c-16.617-2.4-29.191.094-35.484,5.587,10.6-1.693,24.9-3.9,35.484-5.587M-73.084,45.2l-1.234.58,2.25.944Zm17.2,6.6c-1.541-.452-3.9-1.217-5.443-1.669-.181.158.871,4.572,2.553,5.142s3.024-3.216,2.89-3.473m4.644,1.161a12.443,12.443,0,0,0-3.048-.58c.286,2.054.29,6.385,1.306,6.458.714.051,1.814-3.193,1.742-5.878M-.665,46.291c-2.919-3.741-8.427-3.346-12.723.092,4.488,0,8.671-.092,12.723-.092m-6.067,6.7c-2.119-.78-11.153-4.795-11.153-4.795s-3.07,1.377-4.349,1.784c-.016.266,9.368,3.235,15.5,3.011m-42.478.27c2.042,4.059,4.136,8.926,5.079,10.305s1.945,1.341,1.6-.653-2.54-9.071-2.54-9.071a30.02,30.02,0,0,1-4.136-.581m6.095.436c3.289,4.173,7.837,9.941,8.853,11.32s2.467,1.814.685-2.01c-.893-2.12-4.531-9.528-4.531-9.528s-4.132.16-5.007.218m6.966-.436C-34.858,56.6-24.032,65.107-19.9,65.863c-.788-.831-1.356-1.429-1.922-2.028-2.862-3.031-9.467-10.215-9.9-11.231a20.278,20.278,0,0,0-4.427.653m7.982-4.281c-1.524.8-2.975,1.669-2.975,1.669l3.556-.725Zm-1.741,2.9c1.63,3.279,9.062,6.964,12.771,6.676-2.9-2.323-5.927-5.029-8.853-7.039-.759-.522-2.632.3-3.918.363m22.93-13.352a34.713,34.713,0,0,0-6.095,2.612c-3.878,1.908-13.933,6.458-13.57,7.257s6.039.466,7.329-1.452c-.725-1.6.073-1.669,1.306-1.378a5.57,5.57,0,0,0,3.8-1.019c4.44-2.579,8.881-3.9,13.61-.547a5.1,5.1,0,0,0-6.381-5.473M-71.621,10.086c6.313,1.161,23.874.436,30.042-2.612-5.225-.653-17.538,2.113-30.042,2.612M-41.216,4.5c9.433,1.959,17.477.831,17.487.508A48.243,48.243,0,0,0-41.216,4.5m56.309,6.676c.019.243.508,2.032,1.906.989a2.683,2.683,0,0,0,.852-3.819c-1.4-1.974-2.429-3.828-4.281-5.3C10.725.791,6.077-.616,2.322-.8,4.843.961,8.256,3.276,10.672,5.169c2.127,1.667,5.074,3.248,4.421,6.006" fill="#908054"/></g></g></g></svg>