<svg xmlns="http://www.w3.org/2000/svg" width="20.711" height="20.755" viewBox="0 0 20.711 20.755"><g transform="translate(-15.539 -13)"><path d="M20.707,15.232l-2.9-2.9a1.926,1.926,0,0,0-3.207.724A1.971,1.971,0,0,1,12.329,14.3,8.932,8.932,0,0,1,6.949,8.922,1.875,1.875,0,0,1,8.191,6.646,1.926,1.926,0,0,0,8.915,3.44l-2.9-2.9a2.066,2.066,0,0,0-2.793,0L1.26,2.509c-1.965,2.069.207,7.551,5.069,12.413s10.344,7.138,12.413,5.069l1.965-1.965A2.066,2.066,0,0,0,20.707,15.232Z" transform="translate(15 13)" fill="#fff"/></g></svg>