<svg xmlns="http://www.w3.org/2000/svg" width="22.017" height="22.017" viewBox="0 0 22.017 22.017"><g transform="translate(0)"><g transform="translate(0)"><path d="M91.4,86.606c-.043-.021-1.648-.811-1.933-.914a1.11,1.11,0,0,0-.374-.083.636.636,0,0,0-.541.32c-.16.238-.646.806-.8.975-.02.022-.046.049-.062.049s-.263-.1-.338-.135a8.446,8.446,0,0,1-3.208-2.85.177.177,0,0,1-.027-.063.517.517,0,0,1,.094-.111c.087-.086.182-.2.274-.311.043-.052.087-.1.13-.154a1.729,1.729,0,0,0,.261-.414l.036-.072a.748.748,0,0,0-.022-.7c-.038-.076-.716-1.712-.788-1.883-.173-.415-.4-.608-.72-.608-.03,0,0,0-.124.005A3.847,3.847,0,0,0,81.926,80a2.794,2.794,0,0,0-1.036,2.377A5.123,5.123,0,0,0,82,85.193l.046.066a10.456,10.456,0,0,0,4.485,3.894,7.294,7.294,0,0,0,2.709.693h0a4.233,4.233,0,0,0,.441-.026l.079-.008a2.847,2.847,0,0,0,1.985-1.4,2.221,2.221,0,0,0,.127-1.462A1.013,1.013,0,0,0,91.4,86.606Z" transform="translate(-75.108 -73.955)" fill="#fff"/><path d="M11.2,0A10.786,10.786,0,0,0,.39,10.733,10.654,10.654,0,0,0,1.873,16.16L.015,21.639A.286.286,0,0,0,.373,22l5.713-1.815a10.831,10.831,0,0,0,15.931-9.455A10.785,10.785,0,0,0,11.2,0Zm0,19.228a8.567,8.567,0,0,1-4.713-1.405.286.286,0,0,0-.243-.033l-2.862.91.924-2.726a.286.286,0,0,0-.04-.261,8.38,8.38,0,0,1-1.631-4.981,8.565,8.565,0,1,1,8.566,8.5Z" transform="translate(0)" fill="#fff"/></g></g></svg>